<svg width="255" height="310" viewBox="0 0 255 310" fill="none" xmlns="http://www.w3.org/2000/svg">
<g filter="url(#filter0_d_1_112)">
<rect width="230" height="272" transform="translate(19 6)" fill="white"/>
<path d="M59 51C59 45.4772 63.4772 41 69 41H119C124.523 41 129 45.4772 129 51V107C129 112.523 124.523 117 119 117H69C63.4772 117 59 112.523 59 107V51Z" fill="#E74040"/>
<path d="M88 91.6667C85.9388 91.6581 84.1243 90.306 83.5267 88.3333H80.6667V85.6667H83.5267C84.2132 83.364 86.536 81.959 88.8943 82.4201C91.2525 82.8811 92.8751 85.0575 92.6438 87.4492C92.4125 89.8409 90.4029 91.6661 88 91.6667ZM88 85C86.8954 85 86 85.8954 86 87C86 88.1046 86.8954 89 88 89C89.1046 89 90 88.1046 90 87C90 85.8954 89.1046 85 88 85ZM107.333 88.3333H94V85.6667H107.333V88.3333ZM100 83.6667C97.5971 83.6661 95.5875 81.841 95.3562 79.4492C95.1249 77.0575 96.7475 74.8811 99.1057 74.4201C101.464 73.959 103.787 75.364 104.473 77.6667H107.333V80.3333H104.473C103.876 82.306 102.061 83.6581 100 83.6667ZM100 77C98.8954 77 98 77.8954 98 79C98 80.1046 98.8954 81 100 81C101.105 81 102 80.1046 102 79C102 77.8954 101.105 77 100 77ZM94 80.3333H80.6667V77.6667H94V80.3333ZM90.6667 75.6667C88.2638 75.6661 86.2542 73.841 86.0229 71.4492C85.7916 69.0575 87.4142 66.8811 89.7724 66.4201C92.1306 65.959 94.4535 67.364 95.14 69.6667H107.333V72.3333H95.14C94.5419 74.3057 92.7277 75.6576 90.6667 75.6667ZM90.6667 69C89.576 69.0015 88.6876 69.8766 88.6696 70.9671C88.6517 72.0577 89.5109 72.9615 90.6009 72.9988C91.691 73.0362 92.6099 72.1932 92.6667 71.104V71.4907V71C92.6667 69.8954 91.7712 69 90.6667 69ZM84.6667 72.3333H80.6667V69.6667H84.6667V72.3333Z" fill="white"/>
<path d="M60.328 155V143.8H62.92V152.888H68.536V155H60.328ZM73.9574 155.128C73.04 155.128 72.224 154.936 71.5094 154.552C70.8054 154.168 70.2454 153.645 69.8294 152.984C69.424 152.312 69.2214 151.549 69.2214 150.696C69.2214 149.832 69.424 149.069 69.8294 148.408C70.2454 147.736 70.8054 147.213 71.5094 146.84C72.224 146.456 73.04 146.264 73.9574 146.264C74.864 146.264 75.6747 146.456 76.3894 146.84C77.104 147.213 77.664 147.731 78.0694 148.392C78.4747 149.053 78.6774 149.821 78.6774 150.696C78.6774 151.549 78.4747 152.312 78.0694 152.984C77.664 153.645 77.104 154.168 76.3894 154.552C75.6747 154.936 74.864 155.128 73.9574 155.128ZM73.9574 153.08C74.3734 153.08 74.7467 152.984 75.0774 152.792C75.408 152.6 75.6694 152.328 75.8614 151.976C76.0534 151.613 76.1494 151.187 76.1494 150.696C76.1494 150.195 76.0534 149.768 75.8614 149.416C75.6694 149.064 75.408 148.792 75.0774 148.6C74.7467 148.408 74.3734 148.312 73.9574 148.312C73.5414 148.312 73.168 148.408 72.8374 148.6C72.5067 148.792 72.24 149.064 72.0374 149.416C71.8454 149.768 71.7494 150.195 71.7494 150.696C71.7494 151.187 71.8454 151.613 72.0374 151.976C72.24 152.328 72.5067 152.6 72.8374 152.792C73.168 152.984 73.5414 153.08 73.9574 153.08ZM80.4458 155V146.392H82.8298V148.824L82.4938 148.12C82.7498 147.512 83.1604 147.053 83.7258 146.744C84.2911 146.424 84.9791 146.264 85.7898 146.264V148.568C85.6831 148.557 85.5871 148.552 85.5018 148.552C85.4164 148.541 85.3258 148.536 85.2298 148.536C84.5471 148.536 83.9924 148.733 83.5658 149.128C83.1498 149.512 82.9418 150.115 82.9418 150.936V155H80.4458ZM91.5834 155.128C90.602 155.128 89.738 154.936 88.9914 154.552C88.2554 154.168 87.6847 153.645 87.2794 152.984C86.874 152.312 86.6714 151.549 86.6714 150.696C86.6714 149.832 86.8687 149.069 87.2634 148.408C87.6687 147.736 88.218 147.213 88.9114 146.84C89.6047 146.456 90.3887 146.264 91.2634 146.264C92.106 146.264 92.8634 146.445 93.5354 146.808C94.218 147.16 94.7567 147.672 95.1514 148.344C95.546 149.005 95.7434 149.8 95.7434 150.728C95.7434 150.824 95.738 150.936 95.7274 151.064C95.7167 151.181 95.706 151.293 95.6954 151.4H88.7034V149.944H94.3834L93.4234 150.376C93.4234 149.928 93.3327 149.539 93.1514 149.208C92.97 148.877 92.7194 148.621 92.3994 148.44C92.0794 148.248 91.706 148.152 91.2794 148.152C90.8527 148.152 90.474 148.248 90.1434 148.44C89.8234 148.621 89.5727 148.883 89.3914 149.224C89.21 149.555 89.1194 149.949 89.1194 150.408V150.792C89.1194 151.261 89.2207 151.677 89.4234 152.04C89.6367 152.392 89.93 152.664 90.3034 152.856C90.6874 153.037 91.1354 153.128 91.6474 153.128C92.106 153.128 92.506 153.059 92.8474 152.92C93.1994 152.781 93.5194 152.573 93.8074 152.296L95.1354 153.736C94.7407 154.184 94.2447 154.531 93.6474 154.776C93.05 155.011 92.362 155.128 91.5834 155.128ZM108.529 146.264C109.212 146.264 109.814 146.403 110.337 146.68C110.87 146.947 111.286 147.363 111.585 147.928C111.894 148.483 112.049 149.197 112.049 150.072V155H109.553V150.456C109.553 149.763 109.409 149.251 109.121 148.92C108.833 148.589 108.428 148.424 107.905 148.424C107.542 148.424 107.217 148.509 106.929 148.68C106.641 148.84 106.417 149.085 106.257 149.416C106.097 149.747 106.017 150.168 106.017 150.68V155H103.521V150.456C103.521 149.763 103.377 149.251 103.089 148.92C102.812 148.589 102.412 148.424 101.889 148.424C101.526 148.424 101.201 148.509 100.913 148.68C100.625 148.84 100.401 149.085 100.241 149.416C100.081 149.747 100.001 150.168 100.001 150.68V155H97.5051V146.392H99.8891V148.744L99.4411 148.056C99.7398 147.469 100.161 147.027 100.705 146.728C101.26 146.419 101.889 146.264 102.593 146.264C103.382 146.264 104.07 146.467 104.657 146.872C105.254 147.267 105.649 147.875 105.841 148.696L104.961 148.456C105.249 147.784 105.708 147.251 106.337 146.856C106.977 146.461 107.708 146.264 108.529 146.264ZM119.018 155V146.392H121.514V155H119.018ZM120.266 145.192C119.807 145.192 119.434 145.059 119.146 144.792C118.858 144.525 118.714 144.195 118.714 143.8C118.714 143.405 118.858 143.075 119.146 142.808C119.434 142.541 119.807 142.408 120.266 142.408C120.724 142.408 121.098 142.536 121.386 142.792C121.674 143.037 121.818 143.357 121.818 143.752C121.818 144.168 121.674 144.515 121.386 144.792C121.108 145.059 120.735 145.192 120.266 145.192ZM134.954 146.264C135.637 146.264 136.239 146.403 136.762 146.68C137.295 146.947 137.711 147.363 138.01 147.928C138.319 148.483 138.474 149.197 138.474 150.072V155H135.978V150.456C135.978 149.763 135.834 149.251 135.546 148.92C135.258 148.589 134.853 148.424 134.33 148.424C133.967 148.424 133.642 148.509 133.354 148.68C133.066 148.84 132.842 149.085 132.682 149.416C132.522 149.747 132.442 150.168 132.442 150.68V155H129.946V150.456C129.946 149.763 129.802 149.251 129.514 148.92C129.237 148.589 128.837 148.424 128.314 148.424C127.951 148.424 127.626 148.509 127.338 148.68C127.05 148.84 126.826 149.085 126.666 149.416C126.506 149.747 126.426 150.168 126.426 150.68V155H123.93V146.392H126.314V148.744L125.866 148.056C126.165 147.469 126.586 147.027 127.13 146.728C127.685 146.419 128.314 146.264 129.018 146.264C129.807 146.264 130.495 146.467 131.082 146.872C131.679 147.267 132.074 147.875 132.266 148.696L131.386 148.456C131.674 147.784 132.133 147.251 132.762 146.856C133.402 146.461 134.133 146.264 134.954 146.264ZM145.899 155.128C145.174 155.128 144.539 154.968 143.995 154.648C143.451 154.328 143.025 153.843 142.715 153.192C142.417 152.531 142.267 151.699 142.267 150.696C142.267 149.683 142.411 148.851 142.699 148.2C142.987 147.549 143.403 147.064 143.947 146.744C144.491 146.424 145.142 146.264 145.899 146.264C146.71 146.264 147.435 146.451 148.075 146.824C148.726 147.187 149.238 147.699 149.611 148.36C149.995 149.021 150.187 149.8 150.187 150.696C150.187 151.603 149.995 152.387 149.611 153.048C149.238 153.709 148.726 154.221 148.075 154.584C147.435 154.947 146.71 155.128 145.899 155.128ZM140.811 158.104V146.392H143.195V148.152L143.147 150.712L143.307 153.256V158.104H140.811ZM145.467 153.08C145.883 153.08 146.251 152.984 146.571 152.792C146.902 152.6 147.163 152.328 147.355 151.976C147.558 151.613 147.659 151.187 147.659 150.696C147.659 150.195 147.558 149.768 147.355 149.416C147.163 149.064 146.902 148.792 146.571 148.6C146.251 148.408 145.883 148.312 145.467 148.312C145.051 148.312 144.678 148.408 144.347 148.6C144.017 148.792 143.755 149.064 143.563 149.416C143.371 149.768 143.275 150.195 143.275 150.696C143.275 151.187 143.371 151.613 143.563 151.976C143.755 152.328 144.017 152.6 144.347 152.792C144.678 152.984 145.051 153.08 145.467 153.08ZM154.854 155.128C154.118 155.128 153.409 155.043 152.726 154.872C152.054 154.691 151.521 154.467 151.126 154.2L151.958 152.408C152.353 152.653 152.817 152.856 153.35 153.016C153.894 153.165 154.428 153.24 154.95 153.24C155.526 153.24 155.932 153.171 156.166 153.032C156.412 152.893 156.534 152.701 156.534 152.456C156.534 152.253 156.438 152.104 156.246 152.008C156.065 151.901 155.82 151.821 155.51 151.768C155.201 151.715 154.86 151.661 154.486 151.608C154.124 151.555 153.756 151.485 153.382 151.4C153.009 151.304 152.668 151.165 152.358 150.984C152.049 150.803 151.798 150.557 151.606 150.248C151.425 149.939 151.334 149.539 151.334 149.048C151.334 148.504 151.489 148.024 151.798 147.608C152.118 147.192 152.577 146.867 153.174 146.632C153.772 146.387 154.486 146.264 155.318 146.264C155.905 146.264 156.502 146.328 157.11 146.456C157.718 146.584 158.225 146.771 158.63 147.016L157.798 148.792C157.382 148.547 156.961 148.381 156.534 148.296C156.118 148.2 155.713 148.152 155.318 148.152C154.764 148.152 154.358 148.227 154.102 148.376C153.846 148.525 153.718 148.717 153.718 148.952C153.718 149.165 153.809 149.325 153.99 149.432C154.182 149.539 154.433 149.624 154.742 149.688C155.052 149.752 155.388 149.811 155.75 149.864C156.124 149.907 156.497 149.976 156.87 150.072C157.244 150.168 157.58 150.307 157.878 150.488C158.188 150.659 158.438 150.899 158.63 151.208C158.822 151.507 158.918 151.901 158.918 152.392C158.918 152.925 158.758 153.4 158.438 153.816C158.118 154.221 157.654 154.541 157.046 154.776C156.449 155.011 155.718 155.128 154.854 155.128ZM164.19 155.128C163.476 155.128 162.836 154.989 162.27 154.712C161.716 154.435 161.284 154.013 160.974 153.448C160.665 152.872 160.51 152.141 160.51 151.256V146.392H163.006V150.888C163.006 151.603 163.156 152.131 163.454 152.472C163.764 152.803 164.196 152.968 164.75 152.968C165.134 152.968 165.476 152.888 165.774 152.728C166.073 152.557 166.308 152.301 166.478 151.96C166.649 151.608 166.734 151.171 166.734 150.648V146.392H169.23V155H166.862V152.632L167.294 153.32C167.006 153.917 166.58 154.371 166.014 154.68C165.46 154.979 164.852 155.128 164.19 155.128ZM182.667 146.264C183.349 146.264 183.952 146.403 184.475 146.68C185.008 146.947 185.424 147.363 185.723 147.928C186.032 148.483 186.187 149.197 186.187 150.072V155H183.691V150.456C183.691 149.763 183.547 149.251 183.259 148.92C182.971 148.589 182.565 148.424 182.043 148.424C181.68 148.424 181.355 148.509 181.067 148.68C180.779 148.84 180.555 149.085 180.395 149.416C180.235 149.747 180.155 150.168 180.155 150.68V155H177.659V150.456C177.659 149.763 177.515 149.251 177.227 148.92C176.949 148.589 176.549 148.424 176.027 148.424C175.664 148.424 175.339 148.509 175.051 148.68C174.763 148.84 174.539 149.085 174.379 149.416C174.219 149.747 174.139 150.168 174.139 150.68V155H171.643V146.392H174.027V148.744L173.579 148.056C173.877 147.469 174.299 147.027 174.843 146.728C175.397 146.419 176.027 146.264 176.731 146.264C177.52 146.264 178.208 146.467 178.795 146.872C179.392 147.267 179.787 147.875 179.979 148.696L179.099 148.456C179.387 147.784 179.845 147.251 180.475 146.856C181.115 146.461 181.845 146.264 182.667 146.264Z" fill="#252B42"/>
<rect x="59" y="181" width="50" height="2" fill="#E74040"/>
<path d="M60.596 218V208.2H61.632V217.104H67.12V218H60.596ZM71.7168 218.07C71.0074 218.07 70.3681 217.911 69.7988 217.594C69.2388 217.267 68.7954 216.824 68.4688 216.264C68.1421 215.695 67.9788 215.046 67.9788 214.318C67.9788 213.581 68.1421 212.932 68.4688 212.372C68.7954 211.812 69.2388 211.373 69.7988 211.056C70.3588 210.739 70.9981 210.58 71.7168 210.58C72.4448 210.58 73.0888 210.739 73.6488 211.056C74.2181 211.373 74.6614 211.812 74.9788 212.372C75.3054 212.932 75.4688 213.581 75.4688 214.318C75.4688 215.046 75.3054 215.695 74.9788 216.264C74.6614 216.824 74.2181 217.267 73.6488 217.594C73.0794 217.911 72.4354 218.07 71.7168 218.07ZM71.7168 217.188C72.2488 217.188 72.7201 217.071 73.1308 216.838C73.5414 216.595 73.8634 216.259 74.0968 215.83C74.3394 215.391 74.4608 214.887 74.4608 214.318C74.4608 213.739 74.3394 213.235 74.0968 212.806C73.8634 212.377 73.5414 212.045 73.1308 211.812C72.7201 211.569 72.2534 211.448 71.7308 211.448C71.2081 211.448 70.7414 211.569 70.3308 211.812C69.9201 212.045 69.5934 212.377 69.3508 212.806C69.1081 213.235 68.9868 213.739 68.9868 214.318C68.9868 214.887 69.1081 215.391 69.3508 215.83C69.5934 216.259 69.9201 216.595 70.3308 216.838C70.7414 217.071 71.2034 217.188 71.7168 217.188ZM77.6981 218V210.65H78.6501V212.652L78.5521 212.302C78.7574 211.742 79.1028 211.317 79.5881 211.028C80.0734 210.729 80.6754 210.58 81.3941 210.58V211.546C81.3568 211.546 81.3194 211.546 81.2821 211.546C81.2448 211.537 81.2074 211.532 81.1701 211.532C80.3954 211.532 79.7888 211.77 79.3501 212.246C78.9114 212.713 78.6921 213.38 78.6921 214.248V218H77.6981ZM86.4615 218.07C85.6962 218.07 85.0242 217.911 84.4455 217.594C83.8668 217.267 83.4142 216.824 83.0875 216.264C82.7608 215.695 82.5975 215.046 82.5975 214.318C82.5975 213.59 82.7515 212.946 83.0595 212.386C83.3768 211.826 83.8062 211.387 84.3475 211.07C84.8982 210.743 85.5142 210.58 86.1955 210.58C86.8862 210.58 87.4975 210.739 88.0295 211.056C88.5708 211.364 88.9955 211.803 89.3035 212.372C89.6115 212.932 89.7655 213.581 89.7655 214.318C89.7655 214.365 89.7608 214.416 89.7515 214.472C89.7515 214.519 89.7515 214.57 89.7515 214.626H83.3535V213.884H89.2195L88.8275 214.178C88.8275 213.646 88.7108 213.175 88.4775 212.764C88.2535 212.344 87.9455 212.017 87.5535 211.784C87.1615 211.551 86.7088 211.434 86.1955 211.434C85.6915 211.434 85.2388 211.551 84.8375 211.784C84.4362 212.017 84.1235 212.344 83.8995 212.764C83.6755 213.184 83.5635 213.665 83.5635 214.206V214.36C83.5635 214.92 83.6848 215.415 83.9275 215.844C84.1795 216.264 84.5248 216.595 84.9635 216.838C85.4115 217.071 85.9202 217.188 86.4895 217.188C86.9375 217.188 87.3528 217.109 87.7355 216.95C88.1275 216.791 88.4635 216.549 88.7435 216.222L89.3035 216.866C88.9768 217.258 88.5662 217.557 88.0715 217.762C87.5862 217.967 87.0495 218.07 86.4615 218.07ZM101.173 210.58C101.77 210.58 102.288 210.697 102.727 210.93C103.175 211.154 103.52 211.499 103.763 211.966C104.015 212.433 104.141 213.021 104.141 213.73V218H103.147V213.828C103.147 213.053 102.96 212.47 102.587 212.078C102.223 211.677 101.705 211.476 101.033 211.476C100.529 211.476 100.09 211.583 99.7167 211.798C99.3527 212.003 99.0681 212.307 98.8627 212.708C98.6667 213.1 98.5687 213.576 98.5687 214.136V218H97.5747V213.828C97.5747 213.053 97.3881 212.47 97.0147 212.078C96.6414 211.677 96.1187 211.476 95.4467 211.476C94.9521 211.476 94.5181 211.583 94.1447 211.798C93.7714 212.003 93.4821 212.307 93.2767 212.708C93.0807 213.1 92.9827 213.576 92.9827 214.136V218H91.9887V210.65H92.9407V212.638L92.7867 212.288C93.0107 211.756 93.3701 211.341 93.8647 211.042C94.3687 210.734 94.9614 210.58 95.6427 210.58C96.3614 210.58 96.9727 210.762 97.4767 211.126C97.9807 211.481 98.3074 212.017 98.4567 212.736L98.0647 212.582C98.2794 211.985 98.6574 211.504 99.1987 211.14C99.7494 210.767 100.407 210.58 101.173 210.58ZM110.9 218V210.65H111.894V218H110.9ZM111.404 209.026C111.199 209.026 111.026 208.956 110.886 208.816C110.746 208.676 110.676 208.508 110.676 208.312C110.676 208.116 110.746 207.953 110.886 207.822C111.026 207.682 111.199 207.612 111.404 207.612C111.61 207.612 111.782 207.677 111.922 207.808C112.062 207.939 112.132 208.102 112.132 208.298C112.132 208.503 112.062 208.676 111.922 208.816C111.792 208.956 111.619 209.026 111.404 209.026ZM124.044 210.58C124.642 210.58 125.16 210.697 125.598 210.93C126.046 211.154 126.392 211.499 126.634 211.966C126.886 212.433 127.012 213.021 127.012 213.73V218H126.018V213.828C126.018 213.053 125.832 212.47 125.458 212.078C125.094 211.677 124.576 211.476 123.904 211.476C123.4 211.476 122.962 211.583 122.588 211.798C122.224 212.003 121.94 212.307 121.734 212.708C121.538 213.1 121.44 213.576 121.44 214.136V218H120.446V213.828C120.446 213.053 120.26 212.47 119.886 212.078C119.513 211.677 118.99 211.476 118.318 211.476C117.824 211.476 117.39 211.583 117.016 211.798C116.643 212.003 116.354 212.307 116.148 212.708C115.952 213.1 115.854 213.576 115.854 214.136V218H114.86V210.65H115.812V212.638L115.658 212.288C115.882 211.756 116.242 211.341 116.736 211.042C117.24 210.734 117.833 210.58 118.514 210.58C119.233 210.58 119.844 210.762 120.348 211.126C120.852 211.481 121.179 212.017 121.328 212.736L120.936 212.582C121.151 211.985 121.529 211.504 122.07 211.14C122.621 210.767 123.279 210.58 124.044 210.58ZM133.702 218.07C133.067 218.07 132.493 217.925 131.98 217.636C131.467 217.337 131.056 216.913 130.748 216.362C130.449 215.802 130.3 215.121 130.3 214.318C130.3 213.515 130.449 212.839 130.748 212.288C131.047 211.728 131.453 211.303 131.966 211.014C132.479 210.725 133.058 210.58 133.702 210.58C134.402 210.58 135.027 210.739 135.578 211.056C136.138 211.364 136.577 211.803 136.894 212.372C137.211 212.932 137.37 213.581 137.37 214.318C137.37 215.065 137.211 215.718 136.894 216.278C136.577 216.838 136.138 217.277 135.578 217.594C135.027 217.911 134.402 218.07 133.702 218.07ZM129.908 220.716V210.65H130.86V212.862L130.762 214.332L130.902 215.816V220.716H129.908ZM133.632 217.188C134.155 217.188 134.621 217.071 135.032 216.838C135.443 216.595 135.769 216.259 136.012 215.83C136.255 215.391 136.376 214.887 136.376 214.318C136.376 213.749 136.255 213.249 136.012 212.82C135.769 212.391 135.443 212.055 135.032 211.812C134.621 211.569 134.155 211.448 133.632 211.448C133.109 211.448 132.638 211.569 132.218 211.812C131.807 212.055 131.481 212.391 131.238 212.82C131.005 213.249 130.888 213.749 130.888 214.318C130.888 214.887 131.005 215.391 131.238 215.83C131.481 216.259 131.807 216.595 132.218 216.838C132.638 217.071 133.109 217.188 133.632 217.188ZM141.57 218.07C140.963 218.07 140.389 217.986 139.848 217.818C139.307 217.641 138.882 217.421 138.574 217.16L139.022 216.376C139.321 216.6 139.703 216.796 140.17 216.964C140.637 217.123 141.127 217.202 141.64 217.202C142.34 217.202 142.844 217.095 143.152 216.88C143.46 216.656 143.614 216.362 143.614 215.998C143.614 215.727 143.525 215.517 143.348 215.368C143.18 215.209 142.956 215.093 142.676 215.018C142.396 214.934 142.083 214.864 141.738 214.808C141.393 214.752 141.047 214.687 140.702 214.612C140.366 214.537 140.058 214.43 139.778 214.29C139.498 214.141 139.269 213.94 139.092 213.688C138.924 213.436 138.84 213.1 138.84 212.68C138.84 212.279 138.952 211.919 139.176 211.602C139.4 211.285 139.727 211.037 140.156 210.86C140.595 210.673 141.127 210.58 141.752 210.58C142.228 210.58 142.704 210.645 143.18 210.776C143.656 210.897 144.048 211.061 144.356 211.266L143.922 212.064C143.595 211.84 143.245 211.681 142.872 211.588C142.499 211.485 142.125 211.434 141.752 211.434C141.089 211.434 140.599 211.551 140.282 211.784C139.974 212.008 139.82 212.297 139.82 212.652C139.82 212.932 139.904 213.151 140.072 213.31C140.249 213.469 140.478 213.595 140.758 213.688C141.047 213.772 141.36 213.842 141.696 213.898C142.041 213.954 142.382 214.024 142.718 214.108C143.063 214.183 143.376 214.29 143.656 214.43C143.945 214.561 144.174 214.752 144.342 215.004C144.519 215.247 144.608 215.569 144.608 215.97C144.608 216.399 144.487 216.773 144.244 217.09C144.011 217.398 143.665 217.641 143.208 217.818C142.76 217.986 142.214 218.07 141.57 218.07ZM149.67 218.07C149.045 218.07 148.499 217.953 148.032 217.72C147.565 217.487 147.201 217.137 146.94 216.67C146.688 216.203 146.562 215.62 146.562 214.92V210.65H147.556V214.808C147.556 215.592 147.747 216.185 148.13 216.586C148.522 216.978 149.068 217.174 149.768 217.174C150.281 217.174 150.725 217.071 151.098 216.866C151.481 216.651 151.77 216.343 151.966 215.942C152.171 215.541 152.274 215.06 152.274 214.5V210.65H153.268V218H152.316V215.984L152.47 216.348C152.237 216.889 151.873 217.314 151.378 217.622C150.893 217.921 150.323 218.07 149.67 218.07ZM165.422 210.58C166.02 210.58 166.538 210.697 166.976 210.93C167.424 211.154 167.77 211.499 168.012 211.966C168.264 212.433 168.39 213.021 168.39 213.73V218H167.396V213.828C167.396 213.053 167.21 212.47 166.836 212.078C166.472 211.677 165.954 211.476 165.282 211.476C164.778 211.476 164.34 211.583 163.966 211.798C163.602 212.003 163.318 212.307 163.112 212.708C162.916 213.1 162.818 213.576 162.818 214.136V218H161.824V213.828C161.824 213.053 161.638 212.47 161.264 212.078C160.891 211.677 160.368 211.476 159.696 211.476C159.202 211.476 158.768 211.583 158.394 211.798C158.021 212.003 157.732 212.307 157.526 212.708C157.33 213.1 157.232 213.576 157.232 214.136V218H156.238V210.65H157.19V212.638L157.036 212.288C157.26 211.756 157.62 211.341 158.114 211.042C158.618 210.734 159.211 210.58 159.892 210.58C160.611 210.58 161.222 210.762 161.726 211.126C162.23 211.481 162.557 212.017 162.706 212.736L162.314 212.582C162.529 211.985 162.907 211.504 163.448 211.14C163.999 210.767 164.657 210.58 165.422 210.58ZM175.15 218V207.612H176.144V218H175.15ZM182.106 218.07C181.396 218.07 180.757 217.911 180.188 217.594C179.628 217.267 179.184 216.824 178.858 216.264C178.531 215.695 178.368 215.046 178.368 214.318C178.368 213.581 178.531 212.932 178.858 212.372C179.184 211.812 179.628 211.373 180.188 211.056C180.748 210.739 181.387 210.58 182.106 210.58C182.834 210.58 183.478 210.739 184.038 211.056C184.607 211.373 185.05 211.812 185.368 212.372C185.694 212.932 185.858 213.581 185.858 214.318C185.858 215.046 185.694 215.695 185.368 216.264C185.05 216.824 184.607 217.267 184.038 217.594C183.468 217.911 182.824 218.07 182.106 218.07ZM182.106 217.188C182.638 217.188 183.109 217.071 183.52 216.838C183.93 216.595 184.252 216.259 184.486 215.83C184.728 215.391 184.85 214.887 184.85 214.318C184.85 213.739 184.728 213.235 184.486 212.806C184.252 212.377 183.93 212.045 183.52 211.812C183.109 211.569 182.642 211.448 182.12 211.448C181.597 211.448 181.13 211.569 180.72 211.812C180.309 212.045 179.982 212.377 179.74 212.806C179.497 213.235 179.376 213.739 179.376 214.318C179.376 214.887 179.497 215.391 179.74 215.83C179.982 216.259 180.309 216.595 180.72 216.838C181.13 217.071 181.592 217.188 182.106 217.188ZM188.087 218V210.65H189.039V212.652L188.941 212.302C189.147 211.742 189.492 211.317 189.977 211.028C190.463 210.729 191.065 210.58 191.783 210.58V211.546C191.746 211.546 191.709 211.546 191.671 211.546C191.634 211.537 191.597 211.532 191.559 211.532C190.785 211.532 190.178 211.77 189.739 212.246C189.301 212.713 189.081 213.38 189.081 214.248V218H188.087ZM196.851 218.07C196.085 218.07 195.413 217.911 194.835 217.594C194.256 217.267 193.803 216.824 193.477 216.264C193.15 215.695 192.987 215.046 192.987 214.318C192.987 213.59 193.141 212.946 193.449 212.386C193.766 211.826 194.195 211.387 194.737 211.07C195.287 210.743 195.903 210.58 196.585 210.58C197.275 210.58 197.887 210.739 198.419 211.056C198.96 211.364 199.385 211.803 199.693 212.372C200.001 212.932 200.155 213.581 200.155 214.318C200.155 214.365 200.15 214.416 200.141 214.472C200.141 214.519 200.141 214.57 200.141 214.626H193.743V213.884H199.609L199.217 214.178C199.217 213.646 199.1 213.175 198.867 212.764C198.643 212.344 198.335 212.017 197.943 211.784C197.551 211.551 197.098 211.434 196.585 211.434C196.081 211.434 195.628 211.551 195.227 211.784C194.825 212.017 194.513 212.344 194.289 212.764C194.065 213.184 193.953 213.665 193.953 214.206V214.36C193.953 214.92 194.074 215.415 194.317 215.844C194.569 216.264 194.914 216.595 195.353 216.838C195.801 217.071 196.309 217.188 196.879 217.188C197.327 217.188 197.742 217.109 198.125 216.95C198.517 216.791 198.853 216.549 199.133 216.222L199.693 216.866C199.366 217.258 198.955 217.557 198.461 217.762C197.975 217.967 197.439 218.07 196.851 218.07ZM211.562 210.58C212.159 210.58 212.677 210.697 213.116 210.93C213.564 211.154 213.909 211.499 214.152 211.966C214.404 212.433 214.53 213.021 214.53 213.73V218H213.536V213.828C213.536 213.053 213.349 212.47 212.976 212.078C212.612 211.677 212.094 211.476 211.422 211.476C210.918 211.476 210.479 211.583 210.106 211.798C209.742 212.003 209.457 212.307 209.252 212.708C209.056 213.1 208.958 213.576 208.958 214.136V218H207.964V213.828C207.964 213.053 207.777 212.47 207.404 212.078C207.03 211.677 206.508 211.476 205.836 211.476C205.341 211.476 204.907 211.583 204.534 211.798C204.16 212.003 203.871 212.307 203.666 212.708C203.47 213.1 203.372 213.576 203.372 214.136V218H202.378V210.65H203.33V212.638L203.176 212.288C203.4 211.756 203.759 211.341 204.254 211.042C204.758 210.734 205.35 210.58 206.032 210.58C206.75 210.58 207.362 210.762 207.866 211.126C208.37 211.481 208.696 212.017 208.846 212.736L208.454 212.582C208.668 211.985 209.046 211.504 209.588 211.14C210.138 210.767 210.796 210.58 211.562 210.58ZM60.386 238V230.65H61.38V238H60.386ZM60.89 229.026C60.6847 229.026 60.512 228.956 60.372 228.816C60.232 228.676 60.162 228.508 60.162 228.312C60.162 228.116 60.232 227.953 60.372 227.822C60.512 227.682 60.6847 227.612 60.89 227.612C61.0953 227.612 61.268 227.677 61.408 227.808C61.548 227.939 61.618 228.102 61.618 228.298C61.618 228.503 61.548 228.676 61.408 228.816C61.2773 228.956 61.1047 229.026 60.89 229.026ZM73.5298 230.58C74.1271 230.58 74.6451 230.697 75.0838 230.93C75.5318 231.154 75.8771 231.499 76.1198 231.966C76.3718 232.433 76.4978 233.021 76.4978 233.73V238H75.5038V233.828C75.5038 233.053 75.3171 232.47 74.9438 232.078C74.5798 231.677 74.0618 231.476 73.3898 231.476C72.8858 231.476 72.4471 231.583 72.0738 231.798C71.7098 232.003 71.4251 232.307 71.2198 232.708C71.0238 233.1 70.9258 233.576 70.9258 234.136V238H69.9318V233.828C69.9318 233.053 69.7451 232.47 69.3718 232.078C68.9984 231.677 68.4758 231.476 67.8038 231.476C67.3091 231.476 66.8751 231.583 66.5018 231.798C66.1284 232.003 65.8391 232.307 65.6338 232.708C65.4378 233.1 65.3398 233.576 65.3398 234.136V238H64.3458V230.65H65.2978V232.638L65.1438 232.288C65.3678 231.756 65.7271 231.341 66.2218 231.042C66.7258 230.734 67.3184 230.58 67.9998 230.58C68.7184 230.58 69.3298 230.762 69.8338 231.126C70.3378 231.481 70.6644 232.017 70.8138 232.736L70.4218 232.582C70.6364 231.985 71.0144 231.504 71.5558 231.14C72.1064 230.767 72.7644 230.58 73.5298 230.58ZM83.1874 238.07C82.5528 238.07 81.9788 237.925 81.4654 237.636C80.9521 237.337 80.5414 236.913 80.2334 236.362C79.9348 235.802 79.7854 235.121 79.7854 234.318C79.7854 233.515 79.9348 232.839 80.2334 232.288C80.5321 231.728 80.9381 231.303 81.4514 231.014C81.9648 230.725 82.5434 230.58 83.1874 230.58C83.8874 230.58 84.5128 230.739 85.0634 231.056C85.6234 231.364 86.0621 231.803 86.3794 232.372C86.6968 232.932 86.8554 233.581 86.8554 234.318C86.8554 235.065 86.6968 235.718 86.3794 236.278C86.0621 236.838 85.6234 237.277 85.0634 237.594C84.5128 237.911 83.8874 238.07 83.1874 238.07ZM79.3934 240.716V230.65H80.3454V232.862L80.2474 234.332L80.3874 235.816V240.716H79.3934ZM83.1174 237.188C83.6401 237.188 84.1068 237.071 84.5174 236.838C84.9281 236.595 85.2548 236.259 85.4974 235.83C85.7401 235.391 85.8614 234.887 85.8614 234.318C85.8614 233.749 85.7401 233.249 85.4974 232.82C85.2548 232.391 84.9281 232.055 84.5174 231.812C84.1068 231.569 83.6401 231.448 83.1174 231.448C82.5948 231.448 82.1234 231.569 81.7034 231.812C81.2928 232.055 80.9661 232.391 80.7234 232.82C80.4901 233.249 80.3734 233.749 80.3734 234.318C80.3734 234.887 80.4901 235.391 80.7234 235.83C80.9661 236.259 81.2928 236.595 81.7034 236.838C82.1234 237.071 82.5948 237.188 83.1174 237.188ZM91.0557 238.07C90.449 238.07 89.875 237.986 89.3337 237.818C88.7924 237.641 88.3677 237.421 88.0597 237.16L88.5077 236.376C88.8064 236.6 89.189 236.796 89.6557 236.964C90.1224 237.123 90.6124 237.202 91.1257 237.202C91.8257 237.202 92.3297 237.095 92.6377 236.88C92.9457 236.656 93.0997 236.362 93.0997 235.998C93.0997 235.727 93.011 235.517 92.8337 235.368C92.6657 235.209 92.4417 235.093 92.1617 235.018C91.8817 234.934 91.569 234.864 91.2237 234.808C90.8784 234.752 90.533 234.687 90.1877 234.612C89.8517 234.537 89.5437 234.43 89.2637 234.29C88.9837 234.141 88.755 233.94 88.5777 233.688C88.4097 233.436 88.3257 233.1 88.3257 232.68C88.3257 232.279 88.4377 231.919 88.6617 231.602C88.8857 231.285 89.2124 231.037 89.6417 230.86C90.0804 230.673 90.6124 230.58 91.2377 230.58C91.7137 230.58 92.1897 230.645 92.6657 230.776C93.1417 230.897 93.5337 231.061 93.8417 231.266L93.4077 232.064C93.081 231.84 92.731 231.681 92.3577 231.588C91.9844 231.485 91.611 231.434 91.2377 231.434C90.575 231.434 90.085 231.551 89.7677 231.784C89.4597 232.008 89.3057 232.297 89.3057 232.652C89.3057 232.932 89.3897 233.151 89.5577 233.31C89.735 233.469 89.9637 233.595 90.2437 233.688C90.533 233.772 90.8457 233.842 91.1817 233.898C91.527 233.954 91.8677 234.024 92.2037 234.108C92.549 234.183 92.8617 234.29 93.1417 234.43C93.431 234.561 93.6597 234.752 93.8277 235.004C94.005 235.247 94.0937 235.569 94.0937 235.97C94.0937 236.399 93.9724 236.773 93.7297 237.09C93.4964 237.398 93.151 237.641 92.6937 237.818C92.2457 237.986 91.6997 238.07 91.0557 238.07ZM99.1556 238.07C98.5303 238.07 97.9843 237.953 97.5176 237.72C97.051 237.487 96.687 237.137 96.4256 236.67C96.1736 236.203 96.0476 235.62 96.0476 234.92V230.65H97.0416V234.808C97.0416 235.592 97.233 236.185 97.6156 236.586C98.0076 236.978 98.5536 237.174 99.2536 237.174C99.767 237.174 100.21 237.071 100.584 236.866C100.966 236.651 101.256 236.343 101.452 235.942C101.657 235.541 101.76 235.06 101.76 234.5V230.65H102.754V238H101.802V235.984L101.956 236.348C101.722 236.889 101.358 237.314 100.864 237.622C100.378 237.921 99.809 238.07 99.1556 238.07ZM114.908 230.58C115.505 230.58 116.023 230.697 116.462 230.93C116.91 231.154 117.255 231.499 117.498 231.966C117.75 232.433 117.876 233.021 117.876 233.73V238H116.882V233.828C116.882 233.053 116.695 232.47 116.322 232.078C115.958 231.677 115.44 231.476 114.768 231.476C114.264 231.476 113.825 231.583 113.452 231.798C113.088 232.003 112.803 232.307 112.598 232.708C112.402 233.1 112.304 233.576 112.304 234.136V238H111.31V233.828C111.31 233.053 111.123 232.47 110.75 232.078C110.377 231.677 109.854 231.476 109.182 231.476C108.687 231.476 108.253 231.583 107.88 231.798C107.507 232.003 107.217 232.307 107.012 232.708C106.816 233.1 106.718 233.576 106.718 234.136V238H105.724V230.65H106.676V232.638L106.522 232.288C106.746 231.756 107.105 231.341 107.6 231.042C108.104 230.734 108.697 230.58 109.378 230.58C110.097 230.58 110.708 230.762 111.212 231.126C111.716 231.481 112.043 232.017 112.192 232.736L111.8 232.582C112.015 231.985 112.393 231.504 112.934 231.14C113.485 230.767 114.143 230.58 114.908 230.58ZM124.636 238V227.612H125.63V238H124.636ZM131.591 238.07C130.882 238.07 130.243 237.911 129.673 237.594C129.113 237.267 128.67 236.824 128.343 236.264C128.017 235.695 127.853 235.046 127.853 234.318C127.853 233.581 128.017 232.932 128.343 232.372C128.67 231.812 129.113 231.373 129.673 231.056C130.233 230.739 130.873 230.58 131.591 230.58C132.319 230.58 132.963 230.739 133.523 231.056C134.093 231.373 134.536 231.812 134.853 232.372C135.18 232.932 135.343 233.581 135.343 234.318C135.343 235.046 135.18 235.695 134.853 236.264C134.536 236.824 134.093 237.267 133.523 237.594C132.954 237.911 132.31 238.07 131.591 238.07ZM131.591 237.188C132.123 237.188 132.595 237.071 133.005 236.838C133.416 236.595 133.738 236.259 133.971 235.83C134.214 235.391 134.335 234.887 134.335 234.318C134.335 233.739 134.214 233.235 133.971 232.806C133.738 232.377 133.416 232.045 133.005 231.812C132.595 231.569 132.128 231.448 131.605 231.448C131.083 231.448 130.616 231.569 130.205 231.812C129.795 232.045 129.468 232.377 129.225 232.806C128.983 233.235 128.861 233.739 128.861 234.318C128.861 234.887 128.983 235.391 129.225 235.83C129.468 236.259 129.795 236.595 130.205 236.838C130.616 237.071 131.078 237.188 131.591 237.188ZM137.573 238V230.65H138.525V232.652L138.427 232.302C138.632 231.742 138.977 231.317 139.463 231.028C139.948 230.729 140.55 230.58 141.269 230.58V231.546C141.231 231.546 141.194 231.546 141.157 231.546C141.119 231.537 141.082 231.532 141.045 231.532C140.27 231.532 139.663 231.77 139.225 232.246C138.786 232.713 138.567 233.38 138.567 234.248V238H137.573ZM146.336 238.07C145.571 238.07 144.899 237.911 144.32 237.594C143.741 237.267 143.289 236.824 142.962 236.264C142.635 235.695 142.472 235.046 142.472 234.318C142.472 233.59 142.626 232.946 142.934 232.386C143.251 231.826 143.681 231.387 144.222 231.07C144.773 230.743 145.389 230.58 146.07 230.58C146.761 230.58 147.372 230.739 147.904 231.056C148.445 231.364 148.87 231.803 149.178 232.372C149.486 232.932 149.64 233.581 149.64 234.318C149.64 234.365 149.635 234.416 149.626 234.472C149.626 234.519 149.626 234.57 149.626 234.626H143.228V233.884H149.094L148.702 234.178C148.702 233.646 148.585 233.175 148.352 232.764C148.128 232.344 147.82 232.017 147.428 231.784C147.036 231.551 146.583 231.434 146.07 231.434C145.566 231.434 145.113 231.551 144.712 231.784C144.311 232.017 143.998 232.344 143.774 232.764C143.55 233.184 143.438 233.665 143.438 234.206V234.36C143.438 234.92 143.559 235.415 143.802 235.844C144.054 236.264 144.399 236.595 144.838 236.838C145.286 237.071 145.795 237.188 146.364 237.188C146.812 237.188 147.227 237.109 147.61 236.95C148.002 236.791 148.338 236.549 148.618 236.222L149.178 236.866C148.851 237.258 148.441 237.557 147.946 237.762C147.461 237.967 146.924 238.07 146.336 238.07ZM161.047 230.58C161.645 230.58 162.163 230.697 162.601 230.93C163.049 231.154 163.395 231.499 163.637 231.966C163.889 232.433 164.015 233.021 164.015 233.73V238H163.021V233.828C163.021 233.053 162.835 232.47 162.461 232.078C162.097 231.677 161.579 231.476 160.907 231.476C160.403 231.476 159.965 231.583 159.591 231.798C159.227 232.003 158.943 232.307 158.737 232.708C158.541 233.1 158.443 233.576 158.443 234.136V238H157.449V233.828C157.449 233.053 157.263 232.47 156.889 232.078C156.516 231.677 155.993 231.476 155.321 231.476C154.827 231.476 154.393 231.583 154.019 231.798C153.646 232.003 153.357 232.307 153.151 232.708C152.955 233.1 152.857 233.576 152.857 234.136V238H151.863V230.65H152.815V232.638L152.661 232.288C152.885 231.756 153.245 231.341 153.739 231.042C154.243 230.734 154.836 230.58 155.517 230.58C156.236 230.58 156.847 230.762 157.351 231.126C157.855 231.481 158.182 232.017 158.331 232.736L157.939 232.582C158.154 231.985 158.532 231.504 159.073 231.14C159.624 230.767 160.282 230.58 161.047 230.58ZM170.775 238V230.65H171.769V238H170.775ZM171.279 229.026C171.074 229.026 170.901 228.956 170.761 228.816C170.621 228.676 170.551 228.508 170.551 228.312C170.551 228.116 170.621 227.953 170.761 227.822C170.901 227.682 171.074 227.612 171.279 227.612C171.484 227.612 171.657 227.677 171.797 227.808C171.937 227.939 172.007 228.102 172.007 228.298C172.007 228.503 171.937 228.676 171.797 228.816C171.666 228.956 171.494 229.026 171.279 229.026ZM183.919 230.58C184.516 230.58 185.034 230.697 185.473 230.93C185.921 231.154 186.266 231.499 186.509 231.966C186.761 232.433 186.887 233.021 186.887 233.73V238H185.893V233.828C185.893 233.053 185.706 232.47 185.333 232.078C184.969 231.677 184.451 231.476 183.779 231.476C183.275 231.476 182.836 231.583 182.463 231.798C182.099 232.003 181.814 232.307 181.609 232.708C181.413 233.1 181.315 233.576 181.315 234.136V238H180.321V233.828C180.321 233.053 180.134 232.47 179.761 232.078C179.387 231.677 178.865 231.476 178.193 231.476C177.698 231.476 177.264 231.583 176.891 231.798C176.517 232.003 176.228 232.307 176.023 232.708C175.827 233.1 175.729 233.576 175.729 234.136V238H174.735V230.65H175.687V232.638L175.533 232.288C175.757 231.756 176.116 231.341 176.611 231.042C177.115 230.734 177.707 230.58 178.389 230.58C179.107 230.58 179.719 230.762 180.223 231.126C180.727 231.481 181.053 232.017 181.203 232.736L180.811 232.582C181.025 231.985 181.403 231.504 181.945 231.14C182.495 230.767 183.153 230.58 183.919 230.58ZM193.576 238.07C192.942 238.07 192.368 237.925 191.854 237.636C191.341 237.337 190.93 236.913 190.622 236.362C190.324 235.802 190.174 235.121 190.174 234.318C190.174 233.515 190.324 232.839 190.622 232.288C190.921 231.728 191.327 231.303 191.84 231.014C192.354 230.725 192.932 230.58 193.576 230.58C194.276 230.58 194.902 230.739 195.452 231.056C196.012 231.364 196.451 231.803 196.768 232.372C197.086 232.932 197.244 233.581 197.244 234.318C197.244 235.065 197.086 235.718 196.768 236.278C196.451 236.838 196.012 237.277 195.452 237.594C194.902 237.911 194.276 238.07 193.576 238.07ZM189.782 240.716V230.65H190.734V232.862L190.636 234.332L190.776 235.816V240.716H189.782ZM193.506 237.188C194.029 237.188 194.496 237.071 194.906 236.838C195.317 236.595 195.644 236.259 195.886 235.83C196.129 235.391 196.25 234.887 196.25 234.318C196.25 233.749 196.129 233.249 195.886 232.82C195.644 232.391 195.317 232.055 194.906 231.812C194.496 231.569 194.029 231.448 193.506 231.448C192.984 231.448 192.512 231.569 192.092 231.812C191.682 232.055 191.355 232.391 191.112 232.82C190.879 233.249 190.762 233.749 190.762 234.318C190.762 234.887 190.879 235.391 191.112 235.83C191.355 236.259 191.682 236.595 192.092 236.838C192.512 237.071 192.984 237.188 193.506 237.188ZM201.445 238.07C200.838 238.07 200.264 237.986 199.723 237.818C199.181 237.641 198.757 237.421 198.449 237.16L198.897 236.376C199.195 236.6 199.578 236.796 200.045 236.964C200.511 237.123 201.001 237.202 201.515 237.202C202.215 237.202 202.719 237.095 203.027 236.88C203.335 236.656 203.489 236.362 203.489 235.998C203.489 235.727 203.4 235.517 203.223 235.368C203.055 235.209 202.831 235.093 202.551 235.018C202.271 234.934 201.958 234.864 201.613 234.808C201.267 234.752 200.922 234.687 200.577 234.612C200.241 234.537 199.933 234.43 199.653 234.29C199.373 234.141 199.144 233.94 198.967 233.688C198.799 233.436 198.715 233.1 198.715 232.68C198.715 232.279 198.827 231.919 199.051 231.602C199.275 231.285 199.601 231.037 200.031 230.86C200.469 230.673 201.001 230.58 201.627 230.58C202.103 230.58 202.579 230.645 203.055 230.776C203.531 230.897 203.923 231.061 204.231 231.266L203.797 232.064C203.47 231.84 203.12 231.681 202.747 231.588C202.373 231.485 202 231.434 201.627 231.434C200.964 231.434 200.474 231.551 200.157 231.784C199.849 232.008 199.695 232.297 199.695 232.652C199.695 232.932 199.779 233.151 199.947 233.31C200.124 233.469 200.353 233.595 200.633 233.688C200.922 233.772 201.235 233.842 201.571 233.898C201.916 233.954 202.257 234.024 202.593 234.108C202.938 234.183 203.251 234.29 203.531 234.43C203.82 234.561 204.049 234.752 204.217 235.004C204.394 235.247 204.483 235.569 204.483 235.97C204.483 236.399 204.361 236.773 204.119 237.09C203.885 237.398 203.54 237.641 203.083 237.818C202.635 237.986 202.089 238.07 201.445 238.07ZM209.545 238.07C208.919 238.07 208.373 237.953 207.907 237.72C207.44 237.487 207.076 237.137 206.815 236.67C206.563 236.203 206.437 235.62 206.437 234.92V230.65H207.431V234.808C207.431 235.592 207.622 236.185 208.005 236.586C208.397 236.978 208.943 237.174 209.643 237.174C210.156 237.174 210.599 237.071 210.973 236.866C211.355 236.651 211.645 236.343 211.841 235.942C212.046 235.541 212.149 235.06 212.149 234.5V230.65H213.143V238H212.191V235.984L212.345 236.348C212.111 236.889 211.747 237.314 211.253 237.622C210.767 237.921 210.198 238.07 209.545 238.07ZM225.297 230.58C225.894 230.58 226.412 230.697 226.851 230.93C227.299 231.154 227.644 231.499 227.887 231.966C228.139 232.433 228.265 233.021 228.265 233.73V238H227.271V233.828C227.271 233.053 227.084 232.47 226.711 232.078C226.347 231.677 225.829 231.476 225.157 231.476C224.653 231.476 224.214 231.583 223.841 231.798C223.477 232.003 223.192 232.307 222.987 232.708C222.791 233.1 222.693 233.576 222.693 234.136V238H221.699V233.828C221.699 233.053 221.512 232.47 221.139 232.078C220.766 231.677 220.243 231.476 219.571 231.476C219.076 231.476 218.642 231.583 218.269 231.798C217.896 232.003 217.606 232.307 217.401 232.708C217.205 233.1 217.107 233.576 217.107 234.136V238H216.113V230.65H217.065V232.638L216.911 232.288C217.135 231.756 217.494 231.341 217.989 231.042C218.493 230.734 219.086 230.58 219.767 230.58C220.486 230.58 221.097 230.762 221.601 231.126C222.105 231.481 222.432 232.017 222.581 232.736L222.189 232.582C222.404 231.985 222.782 231.504 223.323 231.14C223.874 230.767 224.532 230.58 225.297 230.58Z" fill="#737373"/>
</g>
<defs>
<filter id="filter0_d_1_112" x="0" y="0" width="268" height="310" filterUnits="userSpaceOnUse" color-interpolation-filters="sRGB">
<feFlood flood-opacity="0" result="BackgroundImageFix"/>
<feColorMatrix in="SourceAlpha" type="matrix" values="0 0 0 0 0 0 0 0 0 0 0 0 0 0 0 0 0 0 127 0" result="hardAlpha"/>
<feOffset dy="13"/>
<feGaussianBlur stdDeviation="9.5"/>
<feColorMatrix type="matrix" values="0 0 0 0 0 0 0 0 0 0 0 0 0 0 0 0 0 0 0.07 0"/>
<feBlend mode="normal" in2="BackgroundImageFix" result="effect1_dropShadow_1_112"/>
<feBlend mode="normal" in="SourceGraphic" in2="effect1_dropShadow_1_112" result="shape"/>
</filter>
</defs>
</svg>
