<svg width="269" height="352" viewBox="0 0 269 352" fill="none" xmlns="http://www.w3.org/2000/svg">
<g filter="url(#filter0_d_1_95)">
<g filter="url(#filter1_d_1_95)">
<rect width="230" height="272" transform="translate(19.5 48)" fill="white"/>
<path d="M59.5 93C59.5 87.4772 63.9772 83 69.5 83H119.5C125.023 83 129.5 87.4772 129.5 93V149C129.5 154.523 125.023 159 119.5 159H69.5C63.9772 159 59.5 154.523 59.5 149V93Z" fill="#E74040"/>
<g clip-path="url(#clip0_1_95)">
<path d="M78.9436 122.42L86.484 129.961L88.364 128.067L80.8303 120.534L78.9436 122.42ZM108.163 112.042L94.0307 126.187L88.3815 120.525L86.4748 122.405L94.0307 129.961L110.056 113.935L108.163 112.042ZM102.512 113.933L100.632 112.039L92.1373 120.534L94.0307 122.414L102.512 113.933Z" fill="white"/>
</g>
<path d="M60.828 197V185.8H63.42V194.888H69.036V197H60.828ZM74.4574 197.128C73.54 197.128 72.724 196.936 72.0094 196.552C71.3054 196.168 70.7454 195.645 70.3294 194.984C69.924 194.312 69.7214 193.549 69.7214 192.696C69.7214 191.832 69.924 191.069 70.3294 190.408C70.7454 189.736 71.3054 189.213 72.0094 188.84C72.724 188.456 73.54 188.264 74.4574 188.264C75.364 188.264 76.1747 188.456 76.8894 188.84C77.604 189.213 78.164 189.731 78.5694 190.392C78.9747 191.053 79.1774 191.821 79.1774 192.696C79.1774 193.549 78.9747 194.312 78.5694 194.984C78.164 195.645 77.604 196.168 76.8894 196.552C76.1747 196.936 75.364 197.128 74.4574 197.128ZM74.4574 195.08C74.8734 195.08 75.2467 194.984 75.5774 194.792C75.908 194.6 76.1694 194.328 76.3614 193.976C76.5534 193.613 76.6494 193.187 76.6494 192.696C76.6494 192.195 76.5534 191.768 76.3614 191.416C76.1694 191.064 75.908 190.792 75.5774 190.6C75.2467 190.408 74.8734 190.312 74.4574 190.312C74.0414 190.312 73.668 190.408 73.3374 190.6C73.0067 190.792 72.74 191.064 72.5374 191.416C72.3454 191.768 72.2494 192.195 72.2494 192.696C72.2494 193.187 72.3454 193.613 72.5374 193.976C72.74 194.328 73.0067 194.6 73.3374 194.792C73.668 194.984 74.0414 195.08 74.4574 195.08ZM80.9458 197V188.392H83.3298V190.824L82.9938 190.12C83.2498 189.512 83.6604 189.053 84.2258 188.744C84.7911 188.424 85.4791 188.264 86.2898 188.264V190.568C86.1831 190.557 86.0871 190.552 86.0018 190.552C85.9164 190.541 85.8258 190.536 85.7298 190.536C85.0471 190.536 84.4924 190.733 84.0658 191.128C83.6498 191.512 83.4418 192.115 83.4418 192.936V197H80.9458ZM92.0834 197.128C91.102 197.128 90.238 196.936 89.4914 196.552C88.7554 196.168 88.1847 195.645 87.7794 194.984C87.374 194.312 87.1714 193.549 87.1714 192.696C87.1714 191.832 87.3687 191.069 87.7634 190.408C88.1687 189.736 88.718 189.213 89.4114 188.84C90.1047 188.456 90.8887 188.264 91.7634 188.264C92.606 188.264 93.3634 188.445 94.0354 188.808C94.718 189.16 95.2567 189.672 95.6514 190.344C96.046 191.005 96.2434 191.8 96.2434 192.728C96.2434 192.824 96.238 192.936 96.2274 193.064C96.2167 193.181 96.206 193.293 96.1954 193.4H89.2034V191.944H94.8834L93.9234 192.376C93.9234 191.928 93.8327 191.539 93.6514 191.208C93.47 190.877 93.2194 190.621 92.8994 190.44C92.5794 190.248 92.206 190.152 91.7794 190.152C91.3527 190.152 90.974 190.248 90.6434 190.44C90.3234 190.621 90.0727 190.883 89.8914 191.224C89.71 191.555 89.6194 191.949 89.6194 192.408V192.792C89.6194 193.261 89.7207 193.677 89.9234 194.04C90.1367 194.392 90.43 194.664 90.8034 194.856C91.1874 195.037 91.6354 195.128 92.1474 195.128C92.606 195.128 93.006 195.059 93.3474 194.92C93.6994 194.781 94.0194 194.573 94.3074 194.296L95.6354 195.736C95.2407 196.184 94.7447 196.531 94.1474 196.776C93.55 197.011 92.862 197.128 92.0834 197.128ZM109.029 188.264C109.712 188.264 110.314 188.403 110.837 188.68C111.37 188.947 111.786 189.363 112.085 189.928C112.394 190.483 112.549 191.197 112.549 192.072V197H110.053V192.456C110.053 191.763 109.909 191.251 109.621 190.92C109.333 190.589 108.928 190.424 108.405 190.424C108.042 190.424 107.717 190.509 107.429 190.68C107.141 190.84 106.917 191.085 106.757 191.416C106.597 191.747 106.517 192.168 106.517 192.68V197H104.021V192.456C104.021 191.763 103.877 191.251 103.589 190.92C103.312 190.589 102.912 190.424 102.389 190.424C102.026 190.424 101.701 190.509 101.413 190.68C101.125 190.84 100.901 191.085 100.741 191.416C100.581 191.747 100.501 192.168 100.501 192.68V197H98.0051V188.392H100.389V190.744L99.9411 190.056C100.24 189.469 100.661 189.027 101.205 188.728C101.76 188.419 102.389 188.264 103.093 188.264C103.882 188.264 104.57 188.467 105.157 188.872C105.754 189.267 106.149 189.875 106.341 190.696L105.461 190.456C105.749 189.784 106.208 189.251 106.837 188.856C107.477 188.461 108.208 188.264 109.029 188.264ZM119.518 197V188.392H122.014V197H119.518ZM120.766 187.192C120.307 187.192 119.934 187.059 119.646 186.792C119.358 186.525 119.214 186.195 119.214 185.8C119.214 185.405 119.358 185.075 119.646 184.808C119.934 184.541 120.307 184.408 120.766 184.408C121.224 184.408 121.598 184.536 121.886 184.792C122.174 185.037 122.318 185.357 122.318 185.752C122.318 186.168 122.174 186.515 121.886 186.792C121.608 187.059 121.235 187.192 120.766 187.192ZM135.454 188.264C136.137 188.264 136.739 188.403 137.262 188.68C137.795 188.947 138.211 189.363 138.51 189.928C138.819 190.483 138.974 191.197 138.974 192.072V197H136.478V192.456C136.478 191.763 136.334 191.251 136.046 190.92C135.758 190.589 135.353 190.424 134.83 190.424C134.467 190.424 134.142 190.509 133.854 190.68C133.566 190.84 133.342 191.085 133.182 191.416C133.022 191.747 132.942 192.168 132.942 192.68V197H130.446V192.456C130.446 191.763 130.302 191.251 130.014 190.92C129.737 190.589 129.337 190.424 128.814 190.424C128.451 190.424 128.126 190.509 127.838 190.68C127.55 190.84 127.326 191.085 127.166 191.416C127.006 191.747 126.926 192.168 126.926 192.68V197H124.43V188.392H126.814V190.744L126.366 190.056C126.665 189.469 127.086 189.027 127.63 188.728C128.185 188.419 128.814 188.264 129.518 188.264C130.307 188.264 130.995 188.467 131.582 188.872C132.179 189.267 132.574 189.875 132.766 190.696L131.886 190.456C132.174 189.784 132.633 189.251 133.262 188.856C133.902 188.461 134.633 188.264 135.454 188.264ZM146.399 197.128C145.674 197.128 145.039 196.968 144.495 196.648C143.951 196.328 143.525 195.843 143.215 195.192C142.917 194.531 142.767 193.699 142.767 192.696C142.767 191.683 142.911 190.851 143.199 190.2C143.487 189.549 143.903 189.064 144.447 188.744C144.991 188.424 145.642 188.264 146.399 188.264C147.21 188.264 147.935 188.451 148.575 188.824C149.226 189.187 149.738 189.699 150.111 190.36C150.495 191.021 150.687 191.8 150.687 192.696C150.687 193.603 150.495 194.387 150.111 195.048C149.738 195.709 149.226 196.221 148.575 196.584C147.935 196.947 147.21 197.128 146.399 197.128ZM141.311 200.104V188.392H143.695V190.152L143.647 192.712L143.807 195.256V200.104H141.311ZM145.967 195.08C146.383 195.08 146.751 194.984 147.071 194.792C147.402 194.6 147.663 194.328 147.855 193.976C148.058 193.613 148.159 193.187 148.159 192.696C148.159 192.195 148.058 191.768 147.855 191.416C147.663 191.064 147.402 190.792 147.071 190.6C146.751 190.408 146.383 190.312 145.967 190.312C145.551 190.312 145.178 190.408 144.847 190.6C144.517 190.792 144.255 191.064 144.063 191.416C143.871 191.768 143.775 192.195 143.775 192.696C143.775 193.187 143.871 193.613 144.063 193.976C144.255 194.328 144.517 194.6 144.847 194.792C145.178 194.984 145.551 195.08 145.967 195.08ZM155.354 197.128C154.618 197.128 153.909 197.043 153.226 196.872C152.554 196.691 152.021 196.467 151.626 196.2L152.458 194.408C152.853 194.653 153.317 194.856 153.85 195.016C154.394 195.165 154.928 195.24 155.45 195.24C156.026 195.24 156.432 195.171 156.666 195.032C156.912 194.893 157.034 194.701 157.034 194.456C157.034 194.253 156.938 194.104 156.746 194.008C156.565 193.901 156.32 193.821 156.01 193.768C155.701 193.715 155.36 193.661 154.986 193.608C154.624 193.555 154.256 193.485 153.882 193.4C153.509 193.304 153.168 193.165 152.858 192.984C152.549 192.803 152.298 192.557 152.106 192.248C151.925 191.939 151.834 191.539 151.834 191.048C151.834 190.504 151.989 190.024 152.298 189.608C152.618 189.192 153.077 188.867 153.674 188.632C154.272 188.387 154.986 188.264 155.818 188.264C156.405 188.264 157.002 188.328 157.61 188.456C158.218 188.584 158.725 188.771 159.13 189.016L158.298 190.792C157.882 190.547 157.461 190.381 157.034 190.296C156.618 190.2 156.213 190.152 155.818 190.152C155.264 190.152 154.858 190.227 154.602 190.376C154.346 190.525 154.218 190.717 154.218 190.952C154.218 191.165 154.309 191.325 154.49 191.432C154.682 191.539 154.933 191.624 155.242 191.688C155.552 191.752 155.888 191.811 156.25 191.864C156.624 191.907 156.997 191.976 157.37 192.072C157.744 192.168 158.08 192.307 158.378 192.488C158.688 192.659 158.938 192.899 159.13 193.208C159.322 193.507 159.418 193.901 159.418 194.392C159.418 194.925 159.258 195.4 158.938 195.816C158.618 196.221 158.154 196.541 157.546 196.776C156.949 197.011 156.218 197.128 155.354 197.128ZM164.69 197.128C163.976 197.128 163.336 196.989 162.77 196.712C162.216 196.435 161.784 196.013 161.474 195.448C161.165 194.872 161.01 194.141 161.01 193.256V188.392H163.506V192.888C163.506 193.603 163.656 194.131 163.954 194.472C164.264 194.803 164.696 194.968 165.25 194.968C165.634 194.968 165.976 194.888 166.274 194.728C166.573 194.557 166.808 194.301 166.978 193.96C167.149 193.608 167.234 193.171 167.234 192.648V188.392H169.73V197H167.362V194.632L167.794 195.32C167.506 195.917 167.08 196.371 166.514 196.68C165.96 196.979 165.352 197.128 164.69 197.128ZM183.167 188.264C183.849 188.264 184.452 188.403 184.975 188.68C185.508 188.947 185.924 189.363 186.223 189.928C186.532 190.483 186.687 191.197 186.687 192.072V197H184.191V192.456C184.191 191.763 184.047 191.251 183.759 190.92C183.471 190.589 183.065 190.424 182.543 190.424C182.18 190.424 181.855 190.509 181.567 190.68C181.279 190.84 181.055 191.085 180.895 191.416C180.735 191.747 180.655 192.168 180.655 192.68V197H178.159V192.456C178.159 191.763 178.015 191.251 177.727 190.92C177.449 190.589 177.049 190.424 176.527 190.424C176.164 190.424 175.839 190.509 175.551 190.68C175.263 190.84 175.039 191.085 174.879 191.416C174.719 191.747 174.639 192.168 174.639 192.68V197H172.143V188.392H174.527V190.744L174.079 190.056C174.377 189.469 174.799 189.027 175.343 188.728C175.897 188.419 176.527 188.264 177.231 188.264C178.02 188.264 178.708 188.467 179.295 188.872C179.892 189.267 180.287 189.875 180.479 190.696L179.599 190.456C179.887 189.784 180.345 189.251 180.975 188.856C181.615 188.461 182.345 188.264 183.167 188.264Z" fill="#252B42"/>
<rect x="59.5" y="223" width="50" height="2" fill="#E74040"/>
<path d="M61.096 260V250.2H62.132V259.104H67.62V260H61.096ZM72.2168 260.07C71.5074 260.07 70.8681 259.911 70.2988 259.594C69.7388 259.267 69.2954 258.824 68.9688 258.264C68.6421 257.695 68.4788 257.046 68.4788 256.318C68.4788 255.581 68.6421 254.932 68.9688 254.372C69.2954 253.812 69.7388 253.373 70.2988 253.056C70.8588 252.739 71.4981 252.58 72.2168 252.58C72.9448 252.58 73.5888 252.739 74.1488 253.056C74.7181 253.373 75.1614 253.812 75.4788 254.372C75.8054 254.932 75.9688 255.581 75.9688 256.318C75.9688 257.046 75.8054 257.695 75.4788 258.264C75.1614 258.824 74.7181 259.267 74.1488 259.594C73.5794 259.911 72.9354 260.07 72.2168 260.07ZM72.2168 259.188C72.7488 259.188 73.2201 259.071 73.6308 258.838C74.0414 258.595 74.3634 258.259 74.5968 257.83C74.8394 257.391 74.9608 256.887 74.9608 256.318C74.9608 255.739 74.8394 255.235 74.5968 254.806C74.3634 254.377 74.0414 254.045 73.6308 253.812C73.2201 253.569 72.7534 253.448 72.2308 253.448C71.7081 253.448 71.2414 253.569 70.8308 253.812C70.4201 254.045 70.0934 254.377 69.8508 254.806C69.6081 255.235 69.4868 255.739 69.4868 256.318C69.4868 256.887 69.6081 257.391 69.8508 257.83C70.0934 258.259 70.4201 258.595 70.8308 258.838C71.2414 259.071 71.7034 259.188 72.2168 259.188ZM78.1981 260V252.65H79.1501V254.652L79.0521 254.302C79.2574 253.742 79.6028 253.317 80.0881 253.028C80.5734 252.729 81.1754 252.58 81.8941 252.58V253.546C81.8568 253.546 81.8194 253.546 81.7821 253.546C81.7448 253.537 81.7074 253.532 81.6701 253.532C80.8954 253.532 80.2888 253.77 79.8501 254.246C79.4114 254.713 79.1921 255.38 79.1921 256.248V260H78.1981ZM86.9615 260.07C86.1962 260.07 85.5242 259.911 84.9455 259.594C84.3668 259.267 83.9142 258.824 83.5875 258.264C83.2608 257.695 83.0975 257.046 83.0975 256.318C83.0975 255.59 83.2515 254.946 83.5595 254.386C83.8768 253.826 84.3062 253.387 84.8475 253.07C85.3982 252.743 86.0142 252.58 86.6955 252.58C87.3862 252.58 87.9975 252.739 88.5295 253.056C89.0708 253.364 89.4955 253.803 89.8035 254.372C90.1115 254.932 90.2655 255.581 90.2655 256.318C90.2655 256.365 90.2608 256.416 90.2515 256.472C90.2515 256.519 90.2515 256.57 90.2515 256.626H83.8535V255.884H89.7195L89.3275 256.178C89.3275 255.646 89.2108 255.175 88.9775 254.764C88.7535 254.344 88.4455 254.017 88.0535 253.784C87.6615 253.551 87.2088 253.434 86.6955 253.434C86.1915 253.434 85.7388 253.551 85.3375 253.784C84.9362 254.017 84.6235 254.344 84.3995 254.764C84.1755 255.184 84.0635 255.665 84.0635 256.206V256.36C84.0635 256.92 84.1848 257.415 84.4275 257.844C84.6795 258.264 85.0248 258.595 85.4635 258.838C85.9115 259.071 86.4202 259.188 86.9895 259.188C87.4375 259.188 87.8528 259.109 88.2355 258.95C88.6275 258.791 88.9635 258.549 89.2435 258.222L89.8035 258.866C89.4768 259.258 89.0662 259.557 88.5715 259.762C88.0862 259.967 87.5495 260.07 86.9615 260.07ZM101.673 252.58C102.27 252.58 102.788 252.697 103.227 252.93C103.675 253.154 104.02 253.499 104.263 253.966C104.515 254.433 104.641 255.021 104.641 255.73V260H103.647V255.828C103.647 255.053 103.46 254.47 103.087 254.078C102.723 253.677 102.205 253.476 101.533 253.476C101.029 253.476 100.59 253.583 100.217 253.798C99.8527 254.003 99.5681 254.307 99.3627 254.708C99.1667 255.1 99.0687 255.576 99.0687 256.136V260H98.0747V255.828C98.0747 255.053 97.8881 254.47 97.5147 254.078C97.1414 253.677 96.6187 253.476 95.9467 253.476C95.4521 253.476 95.0181 253.583 94.6447 253.798C94.2714 254.003 93.9821 254.307 93.7767 254.708C93.5807 255.1 93.4827 255.576 93.4827 256.136V260H92.4887V252.65H93.4407V254.638L93.2867 254.288C93.5107 253.756 93.8701 253.341 94.3647 253.042C94.8687 252.734 95.4614 252.58 96.1427 252.58C96.8614 252.58 97.4727 252.762 97.9767 253.126C98.4807 253.481 98.8074 254.017 98.9567 254.736L98.5647 254.582C98.7794 253.985 99.1574 253.504 99.6987 253.14C100.249 252.767 100.907 252.58 101.673 252.58ZM111.4 260V252.65H112.394V260H111.4ZM111.904 251.026C111.699 251.026 111.526 250.956 111.386 250.816C111.246 250.676 111.176 250.508 111.176 250.312C111.176 250.116 111.246 249.953 111.386 249.822C111.526 249.682 111.699 249.612 111.904 249.612C112.11 249.612 112.282 249.677 112.422 249.808C112.562 249.939 112.632 250.102 112.632 250.298C112.632 250.503 112.562 250.676 112.422 250.816C112.292 250.956 112.119 251.026 111.904 251.026ZM124.544 252.58C125.142 252.58 125.66 252.697 126.098 252.93C126.546 253.154 126.892 253.499 127.134 253.966C127.386 254.433 127.512 255.021 127.512 255.73V260H126.518V255.828C126.518 255.053 126.332 254.47 125.958 254.078C125.594 253.677 125.076 253.476 124.404 253.476C123.9 253.476 123.462 253.583 123.088 253.798C122.724 254.003 122.44 254.307 122.234 254.708C122.038 255.1 121.94 255.576 121.94 256.136V260H120.946V255.828C120.946 255.053 120.76 254.47 120.386 254.078C120.013 253.677 119.49 253.476 118.818 253.476C118.324 253.476 117.89 253.583 117.516 253.798C117.143 254.003 116.854 254.307 116.648 254.708C116.452 255.1 116.354 255.576 116.354 256.136V260H115.36V252.65H116.312V254.638L116.158 254.288C116.382 253.756 116.742 253.341 117.236 253.042C117.74 252.734 118.333 252.58 119.014 252.58C119.733 252.58 120.344 252.762 120.848 253.126C121.352 253.481 121.679 254.017 121.828 254.736L121.436 254.582C121.651 253.985 122.029 253.504 122.57 253.14C123.121 252.767 123.779 252.58 124.544 252.58ZM134.202 260.07C133.567 260.07 132.993 259.925 132.48 259.636C131.967 259.337 131.556 258.913 131.248 258.362C130.949 257.802 130.8 257.121 130.8 256.318C130.8 255.515 130.949 254.839 131.248 254.288C131.547 253.728 131.953 253.303 132.466 253.014C132.979 252.725 133.558 252.58 134.202 252.58C134.902 252.58 135.527 252.739 136.078 253.056C136.638 253.364 137.077 253.803 137.394 254.372C137.711 254.932 137.87 255.581 137.87 256.318C137.87 257.065 137.711 257.718 137.394 258.278C137.077 258.838 136.638 259.277 136.078 259.594C135.527 259.911 134.902 260.07 134.202 260.07ZM130.408 262.716V252.65H131.36V254.862L131.262 256.332L131.402 257.816V262.716H130.408ZM134.132 259.188C134.655 259.188 135.121 259.071 135.532 258.838C135.943 258.595 136.269 258.259 136.512 257.83C136.755 257.391 136.876 256.887 136.876 256.318C136.876 255.749 136.755 255.249 136.512 254.82C136.269 254.391 135.943 254.055 135.532 253.812C135.121 253.569 134.655 253.448 134.132 253.448C133.609 253.448 133.138 253.569 132.718 253.812C132.307 254.055 131.981 254.391 131.738 254.82C131.505 255.249 131.388 255.749 131.388 256.318C131.388 256.887 131.505 257.391 131.738 257.83C131.981 258.259 132.307 258.595 132.718 258.838C133.138 259.071 133.609 259.188 134.132 259.188ZM142.07 260.07C141.463 260.07 140.889 259.986 140.348 259.818C139.807 259.641 139.382 259.421 139.074 259.16L139.522 258.376C139.821 258.6 140.203 258.796 140.67 258.964C141.137 259.123 141.627 259.202 142.14 259.202C142.84 259.202 143.344 259.095 143.652 258.88C143.96 258.656 144.114 258.362 144.114 257.998C144.114 257.727 144.025 257.517 143.848 257.368C143.68 257.209 143.456 257.093 143.176 257.018C142.896 256.934 142.583 256.864 142.238 256.808C141.893 256.752 141.547 256.687 141.202 256.612C140.866 256.537 140.558 256.43 140.278 256.29C139.998 256.141 139.769 255.94 139.592 255.688C139.424 255.436 139.34 255.1 139.34 254.68C139.34 254.279 139.452 253.919 139.676 253.602C139.9 253.285 140.227 253.037 140.656 252.86C141.095 252.673 141.627 252.58 142.252 252.58C142.728 252.58 143.204 252.645 143.68 252.776C144.156 252.897 144.548 253.061 144.856 253.266L144.422 254.064C144.095 253.84 143.745 253.681 143.372 253.588C142.999 253.485 142.625 253.434 142.252 253.434C141.589 253.434 141.099 253.551 140.782 253.784C140.474 254.008 140.32 254.297 140.32 254.652C140.32 254.932 140.404 255.151 140.572 255.31C140.749 255.469 140.978 255.595 141.258 255.688C141.547 255.772 141.86 255.842 142.196 255.898C142.541 255.954 142.882 256.024 143.218 256.108C143.563 256.183 143.876 256.29 144.156 256.43C144.445 256.561 144.674 256.752 144.842 257.004C145.019 257.247 145.108 257.569 145.108 257.97C145.108 258.399 144.987 258.773 144.744 259.09C144.511 259.398 144.165 259.641 143.708 259.818C143.26 259.986 142.714 260.07 142.07 260.07ZM150.17 260.07C149.545 260.07 148.999 259.953 148.532 259.72C148.065 259.487 147.701 259.137 147.44 258.67C147.188 258.203 147.062 257.62 147.062 256.92V252.65H148.056V256.808C148.056 257.592 148.247 258.185 148.63 258.586C149.022 258.978 149.568 259.174 150.268 259.174C150.781 259.174 151.225 259.071 151.598 258.866C151.981 258.651 152.27 258.343 152.466 257.942C152.671 257.541 152.774 257.06 152.774 256.5V252.65H153.768V260H152.816V257.984L152.97 258.348C152.737 258.889 152.373 259.314 151.878 259.622C151.393 259.921 150.823 260.07 150.17 260.07ZM165.922 252.58C166.52 252.58 167.038 252.697 167.476 252.93C167.924 253.154 168.27 253.499 168.512 253.966C168.764 254.433 168.89 255.021 168.89 255.73V260H167.896V255.828C167.896 255.053 167.71 254.47 167.336 254.078C166.972 253.677 166.454 253.476 165.782 253.476C165.278 253.476 164.84 253.583 164.466 253.798C164.102 254.003 163.818 254.307 163.612 254.708C163.416 255.1 163.318 255.576 163.318 256.136V260H162.324V255.828C162.324 255.053 162.138 254.47 161.764 254.078C161.391 253.677 160.868 253.476 160.196 253.476C159.702 253.476 159.268 253.583 158.894 253.798C158.521 254.003 158.232 254.307 158.026 254.708C157.83 255.1 157.732 255.576 157.732 256.136V260H156.738V252.65H157.69V254.638L157.536 254.288C157.76 253.756 158.12 253.341 158.614 253.042C159.118 252.734 159.711 252.58 160.392 252.58C161.111 252.58 161.722 252.762 162.226 253.126C162.73 253.481 163.057 254.017 163.206 254.736L162.814 254.582C163.029 253.985 163.407 253.504 163.948 253.14C164.499 252.767 165.157 252.58 165.922 252.58ZM175.65 260V249.612H176.644V260H175.65ZM182.606 260.07C181.896 260.07 181.257 259.911 180.688 259.594C180.128 259.267 179.684 258.824 179.358 258.264C179.031 257.695 178.868 257.046 178.868 256.318C178.868 255.581 179.031 254.932 179.358 254.372C179.684 253.812 180.128 253.373 180.688 253.056C181.248 252.739 181.887 252.58 182.606 252.58C183.334 252.58 183.978 252.739 184.538 253.056C185.107 253.373 185.55 253.812 185.868 254.372C186.194 254.932 186.358 255.581 186.358 256.318C186.358 257.046 186.194 257.695 185.868 258.264C185.55 258.824 185.107 259.267 184.538 259.594C183.968 259.911 183.324 260.07 182.606 260.07ZM182.606 259.188C183.138 259.188 183.609 259.071 184.02 258.838C184.43 258.595 184.752 258.259 184.986 257.83C185.228 257.391 185.35 256.887 185.35 256.318C185.35 255.739 185.228 255.235 184.986 254.806C184.752 254.377 184.43 254.045 184.02 253.812C183.609 253.569 183.142 253.448 182.62 253.448C182.097 253.448 181.63 253.569 181.22 253.812C180.809 254.045 180.482 254.377 180.24 254.806C179.997 255.235 179.876 255.739 179.876 256.318C179.876 256.887 179.997 257.391 180.24 257.83C180.482 258.259 180.809 258.595 181.22 258.838C181.63 259.071 182.092 259.188 182.606 259.188ZM188.587 260V252.65H189.539V254.652L189.441 254.302C189.647 253.742 189.992 253.317 190.477 253.028C190.963 252.729 191.565 252.58 192.283 252.58V253.546C192.246 253.546 192.209 253.546 192.171 253.546C192.134 253.537 192.097 253.532 192.059 253.532C191.285 253.532 190.678 253.77 190.239 254.246C189.801 254.713 189.581 255.38 189.581 256.248V260H188.587ZM197.351 260.07C196.585 260.07 195.913 259.911 195.335 259.594C194.756 259.267 194.303 258.824 193.977 258.264C193.65 257.695 193.487 257.046 193.487 256.318C193.487 255.59 193.641 254.946 193.949 254.386C194.266 253.826 194.695 253.387 195.237 253.07C195.787 252.743 196.403 252.58 197.085 252.58C197.775 252.58 198.387 252.739 198.919 253.056C199.46 253.364 199.885 253.803 200.193 254.372C200.501 254.932 200.655 255.581 200.655 256.318C200.655 256.365 200.65 256.416 200.641 256.472C200.641 256.519 200.641 256.57 200.641 256.626H194.243V255.884H200.109L199.717 256.178C199.717 255.646 199.6 255.175 199.367 254.764C199.143 254.344 198.835 254.017 198.443 253.784C198.051 253.551 197.598 253.434 197.085 253.434C196.581 253.434 196.128 253.551 195.727 253.784C195.325 254.017 195.013 254.344 194.789 254.764C194.565 255.184 194.453 255.665 194.453 256.206V256.36C194.453 256.92 194.574 257.415 194.817 257.844C195.069 258.264 195.414 258.595 195.853 258.838C196.301 259.071 196.809 259.188 197.379 259.188C197.827 259.188 198.242 259.109 198.625 258.95C199.017 258.791 199.353 258.549 199.633 258.222L200.193 258.866C199.866 259.258 199.455 259.557 198.961 259.762C198.475 259.967 197.939 260.07 197.351 260.07ZM212.062 252.58C212.659 252.58 213.177 252.697 213.616 252.93C214.064 253.154 214.409 253.499 214.652 253.966C214.904 254.433 215.03 255.021 215.03 255.73V260H214.036V255.828C214.036 255.053 213.849 254.47 213.476 254.078C213.112 253.677 212.594 253.476 211.922 253.476C211.418 253.476 210.979 253.583 210.606 253.798C210.242 254.003 209.957 254.307 209.752 254.708C209.556 255.1 209.458 255.576 209.458 256.136V260H208.464V255.828C208.464 255.053 208.277 254.47 207.904 254.078C207.53 253.677 207.008 253.476 206.336 253.476C205.841 253.476 205.407 253.583 205.034 253.798C204.66 254.003 204.371 254.307 204.166 254.708C203.97 255.1 203.872 255.576 203.872 256.136V260H202.878V252.65H203.83V254.638L203.676 254.288C203.9 253.756 204.259 253.341 204.754 253.042C205.258 252.734 205.85 252.58 206.532 252.58C207.25 252.58 207.862 252.762 208.366 253.126C208.87 253.481 209.196 254.017 209.346 254.736L208.954 254.582C209.168 253.985 209.546 253.504 210.088 253.14C210.638 252.767 211.296 252.58 212.062 252.58ZM60.886 280V272.65H61.88V280H60.886ZM61.39 271.026C61.1847 271.026 61.012 270.956 60.872 270.816C60.732 270.676 60.662 270.508 60.662 270.312C60.662 270.116 60.732 269.953 60.872 269.822C61.012 269.682 61.1847 269.612 61.39 269.612C61.5953 269.612 61.768 269.677 61.908 269.808C62.048 269.939 62.118 270.102 62.118 270.298C62.118 270.503 62.048 270.676 61.908 270.816C61.7773 270.956 61.6047 271.026 61.39 271.026ZM74.0298 272.58C74.6271 272.58 75.1451 272.697 75.5838 272.93C76.0318 273.154 76.3771 273.499 76.6198 273.966C76.8718 274.433 76.9978 275.021 76.9978 275.73V280H76.0038V275.828C76.0038 275.053 75.8171 274.47 75.4438 274.078C75.0798 273.677 74.5618 273.476 73.8898 273.476C73.3858 273.476 72.9471 273.583 72.5738 273.798C72.2098 274.003 71.9251 274.307 71.7198 274.708C71.5238 275.1 71.4258 275.576 71.4258 276.136V280H70.4318V275.828C70.4318 275.053 70.2451 274.47 69.8718 274.078C69.4984 273.677 68.9758 273.476 68.3038 273.476C67.8091 273.476 67.3751 273.583 67.0018 273.798C66.6284 274.003 66.3391 274.307 66.1338 274.708C65.9378 275.1 65.8398 275.576 65.8398 276.136V280H64.8458V272.65H65.7978V274.638L65.6438 274.288C65.8678 273.756 66.2271 273.341 66.7218 273.042C67.2258 272.734 67.8184 272.58 68.4998 272.58C69.2184 272.58 69.8298 272.762 70.3338 273.126C70.8378 273.481 71.1644 274.017 71.3138 274.736L70.9218 274.582C71.1364 273.985 71.5144 273.504 72.0558 273.14C72.6064 272.767 73.2644 272.58 74.0298 272.58ZM83.6874 280.07C83.0528 280.07 82.4788 279.925 81.9654 279.636C81.4521 279.337 81.0414 278.913 80.7334 278.362C80.4348 277.802 80.2854 277.121 80.2854 276.318C80.2854 275.515 80.4348 274.839 80.7334 274.288C81.0321 273.728 81.4381 273.303 81.9514 273.014C82.4648 272.725 83.0434 272.58 83.6874 272.58C84.3874 272.58 85.0128 272.739 85.5634 273.056C86.1234 273.364 86.5621 273.803 86.8794 274.372C87.1968 274.932 87.3554 275.581 87.3554 276.318C87.3554 277.065 87.1968 277.718 86.8794 278.278C86.5621 278.838 86.1234 279.277 85.5634 279.594C85.0128 279.911 84.3874 280.07 83.6874 280.07ZM79.8934 282.716V272.65H80.8454V274.862L80.7474 276.332L80.8874 277.816V282.716H79.8934ZM83.6174 279.188C84.1401 279.188 84.6068 279.071 85.0174 278.838C85.4281 278.595 85.7548 278.259 85.9974 277.83C86.2401 277.391 86.3614 276.887 86.3614 276.318C86.3614 275.749 86.2401 275.249 85.9974 274.82C85.7548 274.391 85.4281 274.055 85.0174 273.812C84.6068 273.569 84.1401 273.448 83.6174 273.448C83.0948 273.448 82.6234 273.569 82.2034 273.812C81.7928 274.055 81.4661 274.391 81.2234 274.82C80.9901 275.249 80.8734 275.749 80.8734 276.318C80.8734 276.887 80.9901 277.391 81.2234 277.83C81.4661 278.259 81.7928 278.595 82.2034 278.838C82.6234 279.071 83.0948 279.188 83.6174 279.188ZM91.5557 280.07C90.949 280.07 90.375 279.986 89.8337 279.818C89.2924 279.641 88.8677 279.421 88.5597 279.16L89.0077 278.376C89.3064 278.6 89.689 278.796 90.1557 278.964C90.6224 279.123 91.1124 279.202 91.6257 279.202C92.3257 279.202 92.8297 279.095 93.1377 278.88C93.4457 278.656 93.5997 278.362 93.5997 277.998C93.5997 277.727 93.511 277.517 93.3337 277.368C93.1657 277.209 92.9417 277.093 92.6617 277.018C92.3817 276.934 92.069 276.864 91.7237 276.808C91.3784 276.752 91.033 276.687 90.6877 276.612C90.3517 276.537 90.0437 276.43 89.7637 276.29C89.4837 276.141 89.255 275.94 89.0777 275.688C88.9097 275.436 88.8257 275.1 88.8257 274.68C88.8257 274.279 88.9377 273.919 89.1617 273.602C89.3857 273.285 89.7124 273.037 90.1417 272.86C90.5804 272.673 91.1124 272.58 91.7377 272.58C92.2137 272.58 92.6897 272.645 93.1657 272.776C93.6417 272.897 94.0337 273.061 94.3417 273.266L93.9077 274.064C93.581 273.84 93.231 273.681 92.8577 273.588C92.4844 273.485 92.111 273.434 91.7377 273.434C91.075 273.434 90.585 273.551 90.2677 273.784C89.9597 274.008 89.8057 274.297 89.8057 274.652C89.8057 274.932 89.8897 275.151 90.0577 275.31C90.235 275.469 90.4637 275.595 90.7437 275.688C91.033 275.772 91.3457 275.842 91.6817 275.898C92.027 275.954 92.3677 276.024 92.7037 276.108C93.049 276.183 93.3617 276.29 93.6417 276.43C93.931 276.561 94.1597 276.752 94.3277 277.004C94.505 277.247 94.5937 277.569 94.5937 277.97C94.5937 278.399 94.4724 278.773 94.2297 279.09C93.9964 279.398 93.651 279.641 93.1937 279.818C92.7457 279.986 92.1997 280.07 91.5557 280.07ZM99.6556 280.07C99.0303 280.07 98.4843 279.953 98.0176 279.72C97.551 279.487 97.187 279.137 96.9256 278.67C96.6736 278.203 96.5476 277.62 96.5476 276.92V272.65H97.5416V276.808C97.5416 277.592 97.733 278.185 98.1156 278.586C98.5076 278.978 99.0536 279.174 99.7536 279.174C100.267 279.174 100.71 279.071 101.084 278.866C101.466 278.651 101.756 278.343 101.952 277.942C102.157 277.541 102.26 277.06 102.26 276.5V272.65H103.254V280H102.302V277.984L102.456 278.348C102.222 278.889 101.858 279.314 101.364 279.622C100.878 279.921 100.309 280.07 99.6556 280.07ZM115.408 272.58C116.005 272.58 116.523 272.697 116.962 272.93C117.41 273.154 117.755 273.499 117.998 273.966C118.25 274.433 118.376 275.021 118.376 275.73V280H117.382V275.828C117.382 275.053 117.195 274.47 116.822 274.078C116.458 273.677 115.94 273.476 115.268 273.476C114.764 273.476 114.325 273.583 113.952 273.798C113.588 274.003 113.303 274.307 113.098 274.708C112.902 275.1 112.804 275.576 112.804 276.136V280H111.81V275.828C111.81 275.053 111.623 274.47 111.25 274.078C110.877 273.677 110.354 273.476 109.682 273.476C109.187 273.476 108.753 273.583 108.38 273.798C108.007 274.003 107.717 274.307 107.512 274.708C107.316 275.1 107.218 275.576 107.218 276.136V280H106.224V272.65H107.176V274.638L107.022 274.288C107.246 273.756 107.605 273.341 108.1 273.042C108.604 272.734 109.197 272.58 109.878 272.58C110.597 272.58 111.208 272.762 111.712 273.126C112.216 273.481 112.543 274.017 112.692 274.736L112.3 274.582C112.515 273.985 112.893 273.504 113.434 273.14C113.985 272.767 114.643 272.58 115.408 272.58ZM125.136 280V269.612H126.13V280H125.136ZM132.091 280.07C131.382 280.07 130.743 279.911 130.173 279.594C129.613 279.267 129.17 278.824 128.843 278.264C128.517 277.695 128.353 277.046 128.353 276.318C128.353 275.581 128.517 274.932 128.843 274.372C129.17 273.812 129.613 273.373 130.173 273.056C130.733 272.739 131.373 272.58 132.091 272.58C132.819 272.58 133.463 272.739 134.023 273.056C134.593 273.373 135.036 273.812 135.353 274.372C135.68 274.932 135.843 275.581 135.843 276.318C135.843 277.046 135.68 277.695 135.353 278.264C135.036 278.824 134.593 279.267 134.023 279.594C133.454 279.911 132.81 280.07 132.091 280.07ZM132.091 279.188C132.623 279.188 133.095 279.071 133.505 278.838C133.916 278.595 134.238 278.259 134.471 277.83C134.714 277.391 134.835 276.887 134.835 276.318C134.835 275.739 134.714 275.235 134.471 274.806C134.238 274.377 133.916 274.045 133.505 273.812C133.095 273.569 132.628 273.448 132.105 273.448C131.583 273.448 131.116 273.569 130.705 273.812C130.295 274.045 129.968 274.377 129.725 274.806C129.483 275.235 129.361 275.739 129.361 276.318C129.361 276.887 129.483 277.391 129.725 277.83C129.968 278.259 130.295 278.595 130.705 278.838C131.116 279.071 131.578 279.188 132.091 279.188ZM138.073 280V272.65H139.025V274.652L138.927 274.302C139.132 273.742 139.477 273.317 139.963 273.028C140.448 272.729 141.05 272.58 141.769 272.58V273.546C141.731 273.546 141.694 273.546 141.657 273.546C141.619 273.537 141.582 273.532 141.545 273.532C140.77 273.532 140.163 273.77 139.725 274.246C139.286 274.713 139.067 275.38 139.067 276.248V280H138.073ZM146.836 280.07C146.071 280.07 145.399 279.911 144.82 279.594C144.241 279.267 143.789 278.824 143.462 278.264C143.135 277.695 142.972 277.046 142.972 276.318C142.972 275.59 143.126 274.946 143.434 274.386C143.751 273.826 144.181 273.387 144.722 273.07C145.273 272.743 145.889 272.58 146.57 272.58C147.261 272.58 147.872 272.739 148.404 273.056C148.945 273.364 149.37 273.803 149.678 274.372C149.986 274.932 150.14 275.581 150.14 276.318C150.14 276.365 150.135 276.416 150.126 276.472C150.126 276.519 150.126 276.57 150.126 276.626H143.728V275.884H149.594L149.202 276.178C149.202 275.646 149.085 275.175 148.852 274.764C148.628 274.344 148.32 274.017 147.928 273.784C147.536 273.551 147.083 273.434 146.57 273.434C146.066 273.434 145.613 273.551 145.212 273.784C144.811 274.017 144.498 274.344 144.274 274.764C144.05 275.184 143.938 275.665 143.938 276.206V276.36C143.938 276.92 144.059 277.415 144.302 277.844C144.554 278.264 144.899 278.595 145.338 278.838C145.786 279.071 146.295 279.188 146.864 279.188C147.312 279.188 147.727 279.109 148.11 278.95C148.502 278.791 148.838 278.549 149.118 278.222L149.678 278.866C149.351 279.258 148.941 279.557 148.446 279.762C147.961 279.967 147.424 280.07 146.836 280.07ZM161.547 272.58C162.145 272.58 162.663 272.697 163.101 272.93C163.549 273.154 163.895 273.499 164.137 273.966C164.389 274.433 164.515 275.021 164.515 275.73V280H163.521V275.828C163.521 275.053 163.335 274.47 162.961 274.078C162.597 273.677 162.079 273.476 161.407 273.476C160.903 273.476 160.465 273.583 160.091 273.798C159.727 274.003 159.443 274.307 159.237 274.708C159.041 275.1 158.943 275.576 158.943 276.136V280H157.949V275.828C157.949 275.053 157.763 274.47 157.389 274.078C157.016 273.677 156.493 273.476 155.821 273.476C155.327 273.476 154.893 273.583 154.519 273.798C154.146 274.003 153.857 274.307 153.651 274.708C153.455 275.1 153.357 275.576 153.357 276.136V280H152.363V272.65H153.315V274.638L153.161 274.288C153.385 273.756 153.745 273.341 154.239 273.042C154.743 272.734 155.336 272.58 156.017 272.58C156.736 272.58 157.347 272.762 157.851 273.126C158.355 273.481 158.682 274.017 158.831 274.736L158.439 274.582C158.654 273.985 159.032 273.504 159.573 273.14C160.124 272.767 160.782 272.58 161.547 272.58ZM171.275 280V272.65H172.269V280H171.275ZM171.779 271.026C171.574 271.026 171.401 270.956 171.261 270.816C171.121 270.676 171.051 270.508 171.051 270.312C171.051 270.116 171.121 269.953 171.261 269.822C171.401 269.682 171.574 269.612 171.779 269.612C171.984 269.612 172.157 269.677 172.297 269.808C172.437 269.939 172.507 270.102 172.507 270.298C172.507 270.503 172.437 270.676 172.297 270.816C172.166 270.956 171.994 271.026 171.779 271.026ZM184.419 272.58C185.016 272.58 185.534 272.697 185.973 272.93C186.421 273.154 186.766 273.499 187.009 273.966C187.261 274.433 187.387 275.021 187.387 275.73V280H186.393V275.828C186.393 275.053 186.206 274.47 185.833 274.078C185.469 273.677 184.951 273.476 184.279 273.476C183.775 273.476 183.336 273.583 182.963 273.798C182.599 274.003 182.314 274.307 182.109 274.708C181.913 275.1 181.815 275.576 181.815 276.136V280H180.821V275.828C180.821 275.053 180.634 274.47 180.261 274.078C179.887 273.677 179.365 273.476 178.693 273.476C178.198 273.476 177.764 273.583 177.391 273.798C177.017 274.003 176.728 274.307 176.523 274.708C176.327 275.1 176.229 275.576 176.229 276.136V280H175.235V272.65H176.187V274.638L176.033 274.288C176.257 273.756 176.616 273.341 177.111 273.042C177.615 272.734 178.207 272.58 178.889 272.58C179.607 272.58 180.219 272.762 180.723 273.126C181.227 273.481 181.553 274.017 181.703 274.736L181.311 274.582C181.525 273.985 181.903 273.504 182.445 273.14C182.995 272.767 183.653 272.58 184.419 272.58ZM194.076 280.07C193.442 280.07 192.868 279.925 192.354 279.636C191.841 279.337 191.43 278.913 191.122 278.362C190.824 277.802 190.674 277.121 190.674 276.318C190.674 275.515 190.824 274.839 191.122 274.288C191.421 273.728 191.827 273.303 192.34 273.014C192.854 272.725 193.432 272.58 194.076 272.58C194.776 272.58 195.402 272.739 195.952 273.056C196.512 273.364 196.951 273.803 197.268 274.372C197.586 274.932 197.744 275.581 197.744 276.318C197.744 277.065 197.586 277.718 197.268 278.278C196.951 278.838 196.512 279.277 195.952 279.594C195.402 279.911 194.776 280.07 194.076 280.07ZM190.282 282.716V272.65H191.234V274.862L191.136 276.332L191.276 277.816V282.716H190.282ZM194.006 279.188C194.529 279.188 194.996 279.071 195.406 278.838C195.817 278.595 196.144 278.259 196.386 277.83C196.629 277.391 196.75 276.887 196.75 276.318C196.75 275.749 196.629 275.249 196.386 274.82C196.144 274.391 195.817 274.055 195.406 273.812C194.996 273.569 194.529 273.448 194.006 273.448C193.484 273.448 193.012 273.569 192.592 273.812C192.182 274.055 191.855 274.391 191.612 274.82C191.379 275.249 191.262 275.749 191.262 276.318C191.262 276.887 191.379 277.391 191.612 277.83C191.855 278.259 192.182 278.595 192.592 278.838C193.012 279.071 193.484 279.188 194.006 279.188ZM201.945 280.07C201.338 280.07 200.764 279.986 200.223 279.818C199.681 279.641 199.257 279.421 198.949 279.16L199.397 278.376C199.695 278.6 200.078 278.796 200.545 278.964C201.011 279.123 201.501 279.202 202.015 279.202C202.715 279.202 203.219 279.095 203.527 278.88C203.835 278.656 203.989 278.362 203.989 277.998C203.989 277.727 203.9 277.517 203.723 277.368C203.555 277.209 203.331 277.093 203.051 277.018C202.771 276.934 202.458 276.864 202.113 276.808C201.767 276.752 201.422 276.687 201.077 276.612C200.741 276.537 200.433 276.43 200.153 276.29C199.873 276.141 199.644 275.94 199.467 275.688C199.299 275.436 199.215 275.1 199.215 274.68C199.215 274.279 199.327 273.919 199.551 273.602C199.775 273.285 200.101 273.037 200.531 272.86C200.969 272.673 201.501 272.58 202.127 272.58C202.603 272.58 203.079 272.645 203.555 272.776C204.031 272.897 204.423 273.061 204.731 273.266L204.297 274.064C203.97 273.84 203.62 273.681 203.247 273.588C202.873 273.485 202.5 273.434 202.127 273.434C201.464 273.434 200.974 273.551 200.657 273.784C200.349 274.008 200.195 274.297 200.195 274.652C200.195 274.932 200.279 275.151 200.447 275.31C200.624 275.469 200.853 275.595 201.133 275.688C201.422 275.772 201.735 275.842 202.071 275.898C202.416 275.954 202.757 276.024 203.093 276.108C203.438 276.183 203.751 276.29 204.031 276.43C204.32 276.561 204.549 276.752 204.717 277.004C204.894 277.247 204.983 277.569 204.983 277.97C204.983 278.399 204.861 278.773 204.619 279.09C204.385 279.398 204.04 279.641 203.583 279.818C203.135 279.986 202.589 280.07 201.945 280.07ZM210.045 280.07C209.419 280.07 208.873 279.953 208.407 279.72C207.94 279.487 207.576 279.137 207.315 278.67C207.063 278.203 206.937 277.62 206.937 276.92V272.65H207.931V276.808C207.931 277.592 208.122 278.185 208.505 278.586C208.897 278.978 209.443 279.174 210.143 279.174C210.656 279.174 211.099 279.071 211.473 278.866C211.855 278.651 212.145 278.343 212.341 277.942C212.546 277.541 212.649 277.06 212.649 276.5V272.65H213.643V280H212.691V277.984L212.845 278.348C212.611 278.889 212.247 279.314 211.753 279.622C211.267 279.921 210.698 280.07 210.045 280.07ZM225.797 272.58C226.394 272.58 226.912 272.697 227.351 272.93C227.799 273.154 228.144 273.499 228.387 273.966C228.639 274.433 228.765 275.021 228.765 275.73V280H227.771V275.828C227.771 275.053 227.584 274.47 227.211 274.078C226.847 273.677 226.329 273.476 225.657 273.476C225.153 273.476 224.714 273.583 224.341 273.798C223.977 274.003 223.692 274.307 223.487 274.708C223.291 275.1 223.193 275.576 223.193 276.136V280H222.199V275.828C222.199 275.053 222.012 274.47 221.639 274.078C221.266 273.677 220.743 273.476 220.071 273.476C219.576 273.476 219.142 273.583 218.769 273.798C218.396 274.003 218.106 274.307 217.901 274.708C217.705 275.1 217.607 275.576 217.607 276.136V280H216.613V272.65H217.565V274.638L217.411 274.288C217.635 273.756 217.994 273.341 218.489 273.042C218.993 272.734 219.586 272.58 220.267 272.58C220.986 272.58 221.597 272.762 222.101 273.126C222.605 273.481 222.932 274.017 223.081 274.736L222.689 274.582C222.904 273.985 223.282 273.504 223.823 273.14C224.374 272.767 225.032 272.58 225.797 272.58Z" fill="#737373"/>
</g>
</g>
<defs>
<filter id="filter0_d_1_95" x="10" y="0" width="249" height="328" filterUnits="userSpaceOnUse" color-interpolation-filters="sRGB">
<feFlood flood-opacity="0" result="BackgroundImageFix"/>
<feColorMatrix in="SourceAlpha" type="matrix" values="0 0 0 0 0 0 0 0 0 0 0 0 0 0 0 0 0 0 127 0" result="hardAlpha"/>
<feOffset dy="4"/>
<feGaussianBlur stdDeviation="2"/>
<feComposite in2="hardAlpha" operator="out"/>
<feColorMatrix type="matrix" values="0 0 0 0 0 0 0 0 0 0 0 0 0 0 0 0 0 0 0.25 0"/>
<feBlend mode="normal" in2="BackgroundImageFix" result="effect1_dropShadow_1_95"/>
<feBlend mode="normal" in="SourceGraphic" in2="effect1_dropShadow_1_95" result="shape"/>
</filter>
<filter id="filter1_d_1_95" x="0.5" y="42" width="268" height="310" filterUnits="userSpaceOnUse" color-interpolation-filters="sRGB">
<feFlood flood-opacity="0" result="BackgroundImageFix"/>
<feColorMatrix in="SourceAlpha" type="matrix" values="0 0 0 0 0 0 0 0 0 0 0 0 0 0 0 0 0 0 127 0" result="hardAlpha"/>
<feOffset dy="13"/>
<feGaussianBlur stdDeviation="9.5"/>
<feColorMatrix type="matrix" values="0 0 0 0 0 0 0 0 0 0 0 0 0 0 0 0 0 0 0.07 0"/>
<feBlend mode="normal" in2="BackgroundImageFix" result="effect1_dropShadow_1_95"/>
<feBlend mode="normal" in="SourceGraphic" in2="effect1_dropShadow_1_95" result="shape"/>
</filter>
<clipPath id="clip0_1_95">
<rect width="32" height="32" fill="white" transform="translate(78.5 105)"/>
</clipPath>
</defs>
</svg>
